<svg width="1392" height="1977" viewBox="0 0 1392 1977" fill="none" xmlns="http://www.w3.org/2000/svg">
<path fill-rule="evenodd" clip-rule="evenodd" d="M1509.33 0L1415 54.3675C1320.67 110.383 1132 219.117 880.444 329.5C628.889 439.882 314.444 548.617 345.889 659C377.333 769.382 754.667 878.118 943.333 988.5C1132 1098.88 1132 1207.62 1006.22 1318C880.444 1428.38 628.889 1537.12 440.222 1647.5C251.556 1757.88 125.778 1866.62 62.8889 1922.63L0 1977L1698 1977V1922.63C1698 1866.62 1698 1757.88 1698 1647.5C1698 1537.12 1698 1428.38 1698 1318C1698 1207.62 1698 1098.88 1698 988.5C1698 878.118 1698 769.382 1698 659C1698 548.617 1698 439.882 1698 329.5C1698 219.117 1698 110.383 1698 54.3675V0L1509.33 0Z" fill="url(#paint0_linear_38_431)"/>
<defs>
<linearGradient id="paint0_linear_38_431" x1="7.01249e-05" y1="1977" x2="1385.41" y2="497.592" gradientUnits="userSpaceOnUse">
<stop stop-color="#081C15"/>
<stop offset="0.9999" stop-color="#203D36"/>
<stop offset="1" stop-color="#203D36"/>
</linearGradient>
</defs>
</svg>
