<svg version="1.2" xmlns="http://www.w3.org/2000/svg" viewBox="0 0 1200 1200" width="1200" height="1200">
	<title>logohsv2-svg</title>
	<style>
		.s0 { fill: none } 
		.s1 { fill: #1eff4f } 
	</style>
	<g>
		<g id="Prancheta1">
			<path class="s0" d="m0 0h1200v1200h-1200z"/>
			<g>
				<g>
					<g>
						<g>
							<g>
								<path fill-rule="evenodd" class="s1" d="m650.4 727.8c0 0 1.3 0.4 4.3 2 1.2 0.7 2.4 1.3 3.8 2.5 1.3 0.9 2.5 2 3.8 3.4 1.6 1.8 3.1 3.9 4.8 6.1 19.1 24.3 52.2 66.9 52.2 66.9 0.8 1 2 1.5 3.2 1.5l167.5 0.2c1.4 0 2.7-0.7 3.5-1.9 0 0 28.1-42.5 44.4-66.9 1.4-2.1 2.6-4.3 4-6 1.1-1.4 2.2-2.5 3.3-3.5 1.3-1.1 2.3-1.9 3.4-2.4 1.4-0.8 2.2-0.5 3-1.1 0.8-0.7 0.9-1.4 0.9-1.4 2.7-4.1 1.6-9.7-2.6-12.4-4.1-2.7-9.7-1.5-12.4 2.6 0 0-0.6 0.3-0.9 1.4-0.2 1 0.4 1.5 0.2 3.2 0 1.2-0.3 2.4-0.8 4-0.5 1.4-1.1 2.9-1.9 4.5-1.1 2-2.5 3.9-3.9 6.1-13.9 21.5-36.9 57-42.4 65.5l-163.3 0.2c-6.1-7.9-33.9-44-50.6-65.8-1.7-2.2-3.4-4.2-4.6-6.1-1.1-1.6-1.9-3.1-2.5-4.6-0.7-1.7-1-3-1.3-4.3-0.9-3.3-0.9-4.7-0.9-4.7-3.1-3.9-8.7-4.6-12.6-1.6-3.9 3.1-4.6 8.7-1.6 12.6z"/>
							</g>
							<g>
								<path fill-rule="evenodd" class="s1" d="m715 717.3c0.3 1.2-0.6 1-0.6 2.9 0 0.9 0.2 1.7 0.7 2.9 0.2 0.7 0.5 1.4 0.9 2.1 0.6 0.8 1.4 1.6 2.2 2.5 8.7 10.5 22.9 27.4 27.1 32.4l107.8 0.2c4.2-5 18.1-21.9 26.6-32.4 0.6-0.7 1.3-1.4 1.7-2.1 0.6-0.9 1-1.7 1.2-2.5 0.5-1.3 0.5-2.1 0.6-3.1 0.2-3-0.1-3.6-0.1-3.6 3.2-3.8 8.9-4.3 12.7-1.2 3.8 3.2 4.3 8.9 1.1 12.7 0 0-0.6-0.2-3.5 0.6-1 0.2-1.8 0.4-3 1.1-0.8 0.4-1.5 0.9-2.3 1.6-0.6 0.6-1.1 1.4-1.7 2.1-10.4 12.1-28.3 33.3-28.3 33.3-0.8 1-1.9 1.5-3.1 1.5l-111.7 0.2c-1.2 0-2.3-0.6-3.1-1.5 0 0-18.4-21.2-29-33.3-0.8-0.9-1.5-1.8-2.2-2.5q-0.7-0.5-1.3-0.9c1-4.5 5.1-21.7 7.3-13zm-14.3 10.8c-3.2-3.7-2.8-9.4 1-12.6 3.7-3.1 9.2-2.8 6 14.8-0.1 0.6-0.2 1-0.2 1l0.2-1q-0.3-0.2-0.6-0.4c-1.2-0.6-1.9-0.9-2.8-1.1-1-0.1-1.4 0.1-1.8 0.2l5 2.3-5-2.3zm0.7 0.8c-0.4-0.2-0.6-0.7-0.6-0.7l1.7 0.8c-0.3 0.1-0.5 0.2-1.1-0.1z"/>
							</g>
							<g>
								<path fill-rule="evenodd" class="s1" d="m791.5 550.4c-3.8-8.8-6.4-5.3-6.3-1.2 0.1 4.9 4.1 8.7 9 8.7h0.2-0.2c0 0 0.6 0.4 1.4 0 1.1-0.5 0.6-1.2 1.9-2.2 0.9-0.7 1.7-1.1 2.9-1.5 0.9-0.4 1.8-0.6 2.7-0.7 2-0.3 3.8-0.4 5-0.4 0 0 117 69.6 133 79.1 0.5 11.3 2.3 60.4-0.6 80.9-0.2 1.4-0.6 2.6-1 3.7-0.4 0.9-0.7 1.5-1.1 2.2-1.7 2.7-2.4 3.3-2.4 3.3 0 5 4.1 9 9 9 4.9 0 9-4 9-9 0 0-0.7-0.6-2.4-3.3-0.4-0.7-0.7-1.3-1.1-2.2-0.4-1.1-0.8-2.3-1-3.7-3.3-23.2-0.5-83.2-0.5-83.2 0-1.4-0.8-2.6-2-3.4l-135.2-81.8c-0.7-0.5-1.6-0.7-2.5-0.7 0 0-3 0.4-6.4 0-0.9-0.1-1.9-0.2-2.8-0.5-1.2-0.4-2-0.8-2.9-1.4-1.4-1-1-1.7-2-2.1-6.3-2.6-5.4 4.4-3.7 10.4z"/>
							</g>
							<g>
								<path fill-rule="evenodd" class="s1" d="m949.6 474.2c0 0-1.3-0.4-4.3-2-1.2-0.7-2.4-1.3-3.8-2.5-1.3-0.9-2.5-2-3.8-3.4-1.6-1.8-3.1-3.9-4.8-6.1-19.1-24.3-52.2-66.9-52.2-66.9-0.8-1-2-1.5-3.2-1.5l-167.5-0.2c-1.4 0-2.7 0.7-3.5 1.9 0 0-28.1 42.5-44.4 66.9-1.4 2.1-2.6 4.3-4 6-1.1 1.4-2.2 2.5-3.3 3.5-1.3 1.1-2.3 1.9-3.4 2.4-1.4 0.8-2.2 0.5-3 1.1-0.8 0.7-0.9 1.4-0.9 1.4-2.7 4.1-1.6 9.7 2.6 12.4 4.1 2.7 9.7 1.5 12.4-2.6 0 0 0.6-0.3 0.9-1.4 0.2-1-0.4-1.5-0.2-3.2 0.1-1.2 0.3-2.4 0.8-4 0.5-1.4 1.1-2.9 1.9-4.5 1.1-2 2.5-3.9 3.9-6.1 13.9-21.5 36.9-57 42.4-65.5l163.4-0.2c6 7.9 33.8 44 50.5 65.8 1.7 2.2 3.4 4.2 4.6 6.1 1.1 1.6 1.9 3.1 2.5 4.6 0.7 1.7 1 3 1.3 4.3 0.9 3.3 0.9 4.7 0.9 4.7 3.1 3.9 8.7 4.6 12.6 1.6 3.9-3.1 4.6-8.7 1.6-12.6z"/>
							</g>
							<g>
								<path fill-rule="evenodd" class="s1" d="m901.4 479c1-2.3 0.5-4.5-2.8-6-1.1-0.5-1 0.5-2.9 0.2-0.9-0.2-1.6-0.5-2.8-1.1-0.6-0.4-1.2-0.8-1.9-1.3-0.7-0.7-1.4-1.6-2.2-2.5-10.6-12.1-29-33.3-29-33.3-0.8-0.9-1.9-1.5-3.1-1.5l-111.7 0.2c-1.2 0-2.3 0.5-3.1 1.5 0 0-17.9 21.2-28.3 33.3-0.6 0.7-1.1 1.5-1.7 2.1-0.8 0.7-1.5 1.2-2.3 1.6-1.2 0.7-2 0.9-3 1.1-2.9 0.8-3.5 0.6-3.5 0.6-3.2 3.8-2.7 9.5 1.1 12.7 3.8 3.1 9.5 2.6 12.7-1.2 0 0-0.3-0.6-0.1-3.6 0.1-1 0.1-1.8 0.6-3.1 0.2-0.8 0.6-1.6 1.2-2.5 0.4-0.7 1.1-1.4 1.7-2.1 8.5-10.5 22.4-27.4 26.6-32.4l107.8 0.2c4.2 5 18.4 21.9 27.1 32.4 0.8 0.9 1.6 1.7 2.2 2.5 0.4 0.7 0.7 1.4 0.9 2.1 0.5 1.2 0.7 2 0.7 2.9 0 1.9-0.9 1.7-0.6 2.9 1.3 5.3 7.5 3.9 7.5 3.9-3.6 0.7 2.1 1.1 5.8-2.1 2.3-1.9 3.4-4.7 3.1-7.5z"/>
							</g>
							<g>
								<path fill-rule="evenodd" class="s1" d="m897.9 647.2c0.3-2.3-0.8-3.9-4.3-4.1-1.2 0-0.6 0.8-2.5 1.2-0.9 0.2-1.5 0.2-2.8 0.1-0.7-0.1-1.4-0.3-2.2-0.6-1.5-0.5-2.9-1.5-4.6-2.5-19.2-10.6-60.6-33.7-97.6-54.8-27.6-15.7-53.5-29.2-64.6-37.2-1-0.8-1.9-1.5-2.5-2.3-0.8-1.1-1-1.7-1.4-2.6-1.1-2.8-1-3.2-1-3.2-4.3-2.5-9.8-1-12.2 3.3-2.5 4.3-1 9.8 3.3 12.3 0 0 0.4-0.4 3.3-0.8 1-0.1 1.6-0.3 3-0.1 1 0.1 2 0.5 3.2 1 12.6 5.4 37.4 20.8 65 36.5 37 21 78 44.8 97 55.9 1.7 0.9 3.3 1.7 4.5 2.6 0.7 0.6 1.2 1.1 1.6 1.7 0.7 1 1.1 1.5 1.4 2.4 0.5 1.8-0.4 1.7 0.2 2.7 2 3.1 5.3 1.7 5.3 1.7-0.1 1.3 5.4-0.2 7.8-4.5 1.6-2.8 1.5-6.1 0.1-8.7z"/>
							</g>
							<g>
								<path fill-rule="evenodd" class="s1" d="m801.8 645c-0.7-1.2-1.9-1.6-4.2-0.6-1 0.5-0.6 1.2-1.8 2.1-0.9 0.7-1.8 1.1-2.8 1.5q-0.8 0.3-1.5 0.4c-4.7-2.7-20.4-11.8-39.4-23-35.8-21.1-83.4-49.7-93.2-55.6-0.5-11.2-2.3-60.4 0.5-80.9 0.2-1.4 0.6-2.6 1-3.7 0.4-0.9 0.7-1.5 1.2-2.2 1.7-2.8 2.4-3.3 2.4-3.3 0-5-4.1-9-9-9-4.9 0-9 4-9 9 0 0 0.7 0.5 2.4 3.3 0.5 0.7 0.8 1.3 1.2 2.2 0.4 1.1 0.8 2.3 1 3.7 3.1 23.2 0.5 83.2 0.5 83.2 0 1.4 0.7 2.6 1.9 3.4 0 0 55 32.9 94.7 57.1 22.7 13.9 40.4 24.9 40.4 24.9 0.7 0.5 1.6 0.7 2.5 0.7 0 0 1 0.1 2.4 0.7 1 0.4 1.9 0.7 2.8 1.4 1.2 1 0.8 1.6 1.8 2.1 0.6 0.3 1.2 0 1.2 0 4.9 0 8.9-4 8.9-9 0-3.9-2.5-7.2-5.9-8.4z"/>
							</g>
						</g>
					</g>
					<g>
						<g>
							<g>
								<path fill-rule="evenodd" class="s1" d="m347.9 615.3c0 0 1 3.9 2.1 11.1 0.6 3.2 1.2 6.8 1.6 11.1 0.4 4.5 0.7 9.4 0.9 14.9 1.5 47.4 0.6 125.7 0.4 144.3h-27.4c0 0 0-356.8 0-398.9l66.5 0.1-0.2 125.9c0 2.3 2 4.3 4.4 4.3 0 0 78.3-1.2 123.2 0.5q4.9 0.2 9.2 0.6c4 0.5 7.4 0.9 10.4 1.5 2.9 0.6 4.9 1.7 6.9 2 2.7 0.4 4.3 0 4.3 0 4.9 0 9-4 9-8.9 0-5-4.1-9-9-9 0 0-1.6-0.4-4.3 0-2 0.3-4 1.4-6.9 2-3 0.6-6.4 1-10.4 1.5q-4.3 0.4-9.2 0.6c-38.6 1.4-101.9 0.8-118.9 0.6 0 0-0.2-125.7-0.2-125.7 0-2.3-1.9-4.2-4.1-4.2l-74.7 0.1c-2.2 0-4 1.8-4 4.1v407c0 2.2 1.8 4 4 4h35.4c2.2 0 4-1.8 4-4 0 0-1.4-94.3 0.3-148.4 0.2-5.5 0.5-10.4 0.9-14.9 0.5-4.3 1.1-7.9 1.6-11.1 1.2-7.2 2.1-11.1 2.1-11.1 0-5-4-9-8.9-9-5 0-9 4-9 9z"/>
							</g>
							<g>
								<path fill-rule="evenodd" class="s1" d="m387.2 671.8c0-5 4-9 9-9 4.9 0 8.9 4 0 17.9 0 0 2.6-3 5.2-5.7l0.1-0.2c0.6-0.9 0.7-1 1.4-1.4v-0.1c2.5-2.5 4.2-4 2.2-0.9-0.8 1.3-0.2-0.4-2.2 0.9l-0.6 0.7-0.9 1c-0.3 0.4-0.5 0.7-0.6 1.2-0.2 1 0 2.1-0.1 3.3-0.2 13.7-0.6 43.2-0.6 69.7 0 19.7-1.1 38 0.4 46.4 0.2 0.8 0.4 1.5 0.8 2.1 2.9 4.1 3.8 3.1 3.8 3.1 0 4.9-4 8.9-8.9 8.9-5 0-9-4-9-8.9 0 0 0.9 1 3.9-3.1 0.4-0.6 0.5-1.3 0.7-2.1 1.5-8.4 0.4-26.7 0.4-46.4 0-26.5-0.4-56-0.6-69.7 0-1.2 0.1-2.3-0.1-3.3l-0.1-0.2-3.2-3.2 3.2 3.2 4.8 4.7-4.8-4.7c-0.1-0.5-0.3-0.8-0.5-1.2-0.7-0.9-0.8-1-1.5-1.4-0.6-0.5-0.9-0.6-1.2-0.6zm0 0.6c-0.1-0.2 0-0.6 0-0.6l1 1c-0.5 0-0.4 0.5-1-0.4z"/>
							</g>
							<g>
								<path fill-rule="evenodd" class="s1" d="m538.3 607.1c-0.5-1.8-1.8-2.5-4.6-0.8-1.2 0.7 0.2 0.6-1.3 2.3-0.5 0.6-0.9 0.9-1.9 1.4-0.5 0.3-1 0.5-1.7 0.6-1.2 0.2-2.6 0.1-4.2 0.1-22.6 0.3-76.9 0.5-87.1 0.6-5.6-5.8-27.2-28.5-34.1-39.9-0.5-0.8-0.8-1.6-0.9-2.4-0.7-4.6 0.4-5.1 0.4-5.1-3.2-3.8-8.9-4.2-12.6-0.9-3.8 3.2-4.1 8.9-0.9 12.6 0 0 0.7-1 5.2 0.3 0.8 0.2 1.5 0.6 2.2 1.3 12 9.5 36.1 40.6 36.1 40.6 0.7 0.9 1.8 1.4 3 1.4 0 0 63.7 0.3 88.7 0.6 1.6 0 3-0.1 4.2 0.1 0.7 0.1 1.2 0.3 1.7 0.6 1 0.5 1.4 0.8 1.9 1.4 1.5 1.7 0.1 1.6 1.3 2.3 0.4 0.3 0.8 0 0.8 0 4.9 0 8.9-4 8.9-8.9 0-3.7-2.1-6.8-5.1-8.2z"/>
							</g>
							<g>
								<path fill-rule="evenodd" class="s1" d="m529.2 808c0.1 0.5 0.9 0.7 1.3 0.9 1.1 0.5 2.3 0.7 3.5 0.8h0.5c1.8 0 3.6-0.5 5-1.5 3.2-1.4 6.3-4 3.9-8.3-0.6-1.1-0.7-0.1-2.2-1.5-0.6-0.6-0.9-1-1.4-2.1-0.3-0.6-0.5-1.2-0.7-2-0.2-1.4 0-2.9 0-4.7-0.3-19.6-0.7-62.1-0.7-100.1 0-28.5-1.1-54.6 0.4-66.8 0.2-1.2 0.4-2.2 0.8-3 0.5-1.2 1-1.5 1.6-2.2 1.9-2.3 2.2-2.2 2.2-2.2 0-5-4-9-8.9-9-5 0-9 4-9 9 0 0 0.4-0.1 2.3 2.2 0.6 0.7 1 1 1.6 2.2 0.4 0.8 0.6 1.8 0.7 3 1.5 12.2 0.4 38.3 0.4 66.8 0 38-0.4 80.5-0.6 100.1 0 1.8 0.1 3.3-0.1 4.7-0.1 0.8-0.3 1.4-0.6 2-0.5 1.1-0.8 1.5-1.5 2.1-1.4 1.4-1.6 0.4-2.2 1.5-2.3 4.1 0.6 6.7 3.7 8.1z"/>
							</g>
							<g>
								<path fill-rule="evenodd" class="s1" d="m615.2 385.6c-0.4-1.7-1.8-2.3-4.6-0.8-1 0.5-0.1 0.8-1.3 2-0.6 0.7-1 1-2.1 1.5-0.6 0.3-1.1 0.5-1.8 0.6-15.3 2.7-55.2 0.8-55.2 0.8-2.3 0-4.1 1.8-4.1 4.1 0 0 0.2 36.8 0.1 71.6 0 18.4-0.2 36.2-0.3 47.8 0 2.1 0.1 4-0.1 5.6-0.1 0.9-0.2 1.7-0.5 2.4-0.5 1.3-1 1.8-1.6 2.6-1.9 2.7-2.5 2.7-2.5 2.7 0 4.9 4.1 9 9 9 4.9 0 9-4.1 9-9 0 0-0.6 0-2.5-2.7-0.6-0.8-1.1-1.3-1.6-2.6-0.3-0.7-0.4-1.5-0.5-2.4-0.2-1.6-0.1-3.5-0.1-5.6-0.1-11.6-0.3-29.4-0.3-47.8-0.1-28 0-57.4 0.1-67.7 10.5-0.4 38.8-1.3 51.1 0.9 0.7 0.1 1.2 0.3 1.8 0.6 1.1 0.5 1.5 0.8 2.1 1.5 1.2 1.2 0.3 1.5 1.3 2 0.5 0.3 0.9 0 0.9 0 4.9 0 9-4 9-8.9 0-3.7-2.2-6.8-5.3-8.2z"/>
							</g>
							<g>
								<path fill-rule="evenodd" class="s1" d="m485.8 580.7c0 0 3.3-1 9-2.2 2.4-0.6 5.1-1.1 8.2-1.5 1.7-0.2 3.5-0.3 5.4-0.5 1.7-0.1 3.5-0.3 5.3-0.4 16.2-0.6 35.1-0.4 43.3-0.2l0.3 224.9c0 2.1 1.7 3.9 3.9 3.9h50.3c2.2 0 4-1.8 4-3.9 0 0 0.2-263.3 0.6-366.3 0-5.4-0.1-10.3 0.1-14.7q0.2-5.4 0.9-9.8c0.4-3 0.8-5.6 1.4-7.8 0.7-2.3 1.7-3.7 2-5.2 0.3-2.1 0-3.2 0-3.2 0-5-4.1-9-9-9-4.9 0-9 4-9 9 0 0-0.3 1.1 0 3.2 0.3 1.5 1.3 2.9 2 5.2 0.6 2.2 1 4.8 1.4 7.8q0.7 4.4 0.9 9.8c0.2 4.4 0.1 9.3 0.1 14.7 0.3 95.6 0.6 329.1 0.6 362.3h-42.3l0.2-225c0-2.4-1.9-4.2-4.2-4.2 0 0-26.1 0.6-47.5-0.2-1.8-0.1-3.6-0.3-5.3-0.4-1.9-0.2-3.7-0.3-5.4-0.5-3.1-0.4-5.8-0.9-8.2-1.5-5.7-1.2-9-2.2-9-2.2-5 0-9 4-9 9 0 4.9 4 8.9 9 8.9z"/>
							</g>
							<g>
								<path fill-rule="evenodd" class="s1" d="m405.1 614.3c1-2.4 0.6-4.6-3-5.8-1.2-0.4-0.6 0.5-2.5 0.4-0.9 0-1.4-0.1-2.5-0.5-0.4-0.2-0.8-0.4-1.2-0.7q-0.7-0.5-1.3-1c-2.9-2.5-6.1-6.3-9.7-10.2-9.5-9.9-20.5-21.7-23.9-25.4-0.1-7.5-0.2-40.2-0.2-71.2 0.1-18.7 0.2-36.9 0.3-48.6 0.1-2.5-0.1-4.7 0.1-6.5 0.1-0.6 0.3-1.1 0.5-1.6 0.6-1.3 1-1.9 1.6-2.7 2-2.7 2.5-2.7 2.5-2.7 0-5-4-9-8.9-9-5 0-9 4-9 9 0 0 0.6 0 2.6 2.7 0.6 0.8 1 1.4 1.5 2.7 0.2 0.5 0.4 1 0.5 1.6 0.3 1.8 0.1 4 0.1 6.5 0.1 11.7 0.3 29.9 0.3 48.6 0.1 35.4-0.1 72.9-0.1 72.9 0 1 0.3 2 1.1 2.7 0 0 13.4 14.8 24.5 27 3.5 4 7.1 7.5 9.4 10.5q0.5 0.7 0.8 1.3c0.3 0.5 0.5 0.9 0.6 1.4 0.4 1.1 0.4 1.6 0.4 2.5-0.1 1.9-1 1.2-0.7 2.5 1.3 5 7.3 3.5 7.3 3.5-3.3 0.8 2.4 1 6-2.4 2.2-2 3.2-4.8 2.9-7.5z"/>
							</g>
						</g>
					</g>
				</g>
			</g>
		</g>
	</g>
</svg>