<svg xmlns="http://www.w3.org/2000/svg" xmlns:xlink="http://www.w3.org/1999/xlink" width="1080" zoomAndPan="magnify" viewBox="0 0 810 809.999993" height="1080" preserveAspectRatio="xMidYMid meet" version="1.0"><defs><clipPath id="336e8d9410"><path d="M 130.777344 483.914062 L 140.164062 483.914062 L 140.164062 492.511719 L 130.777344 492.511719 Z M 130.777344 483.914062 " clip-rule="nonzero"/></clipPath><clipPath id="efd55a3433"><path d="M 134.324219 486 C 135.300781 489.75 137.699219 487.574219 138.601562 487.574219 C 139.199219 487.574219 139.648438 487.875 139.875 488.25 C 140.101562 488.550781 140.175781 489.226562 140.101562 489.601562 C 139.949219 489.976562 139.425781 490.425781 139.050781 490.574219 C 138.601562 490.648438 137.925781 490.5 137.625 490.199219 C 137.324219 489.898438 137.101562 489.300781 137.175781 488.851562 C 137.25 488.476562 137.625 487.875 138 487.726562 C 138.449219 487.574219 139.5 487.726562 139.800781 488.101562 C 140.101562 488.550781 139.949219 489.601562 139.574219 490.273438 C 139.125 491.101562 137.476562 492.148438 136.425781 492.375 C 135.523438 492.601562 134.550781 492.523438 133.726562 492.074219 C 132.675781 491.476562 131.324219 489.976562 130.949219 488.851562 C 130.648438 488.023438 130.800781 487.050781 131.101562 486.300781 C 131.398438 485.398438 132.226562 484.125 132.824219 483.976562 C 133.273438 483.898438 133.875 484.273438 134.101562 484.574219 C 134.324219 484.949219 134.324219 486 134.324219 486 " clip-rule="nonzero"/></clipPath><clipPath id="0deb0f1b32"><path d="M 139.203125 486.851562 L 145.75 486.851562 L 145.75 503.734375 L 139.203125 503.734375 Z M 139.203125 486.851562 " clip-rule="nonzero"/></clipPath><clipPath id="d439e4bf66"><path d="M 145.125 488.023438 C 145.949219 496.125 145.949219 500.550781 145.125 502.199219 C 144.675781 503.023438 144.074219 503.550781 143.398438 503.699219 C 142.574219 503.773438 141.300781 503.101562 140.625 502.425781 C 139.949219 501.75 139.726562 500.625 139.5 499.574219 C 139.199219 498.226562 139.125 496.351562 139.351562 495.148438 C 139.425781 494.175781 139.574219 493.273438 140.101562 492.75 C 140.699219 492.148438 142.273438 491.550781 142.875 492 C 143.773438 492.523438 144.148438 496.425781 143.699219 497.476562 C 143.398438 498.074219 142.648438 498.601562 142.199219 498.523438 C 141.675781 498.449219 140.773438 497.398438 140.773438 496.875 C 140.773438 496.425781 141.148438 495.898438 141.523438 495.675781 C 141.898438 495.523438 142.574219 495.449219 142.949219 495.675781 C 143.324219 495.898438 143.699219 496.425781 143.773438 496.800781 C 143.773438 497.25 143.625 497.925781 143.25 498.148438 C 142.800781 498.449219 141.523438 498.375 141.074219 497.925781 C 140.476562 497.324219 140.25 494.699219 140.699219 494.25 C 141 494.023438 141.824219 494.023438 142.199219 494.476562 C 142.949219 495.300781 142.125 501.675781 142.273438 501.675781 C 142.425781 501.675781 142.949219 497.023438 142.875 494.699219 C 142.875 492.449219 141.75 489.300781 142.199219 488.023438 C 142.5 487.425781 143.023438 486.898438 143.476562 486.898438 C 144 486.824219 145.125 488.023438 145.125 488.023438 " clip-rule="nonzero"/></clipPath><clipPath id="5ade6a11e1"><path d="M 136.515625 478.214844 L 151.75 478.214844 L 151.75 492.058594 L 136.515625 492.058594 Z M 136.515625 478.214844 " clip-rule="nonzero"/></clipPath><clipPath id="772ddd933f"><path d="M 137.925781 478.273438 C 149.476562 479.699219 150.824219 481.425781 151.351562 483 C 151.875 484.5 151.949219 486.601562 151.050781 488.023438 C 149.773438 489.898438 144.074219 492.148438 142.425781 492 C 141.675781 492 141.074219 491.476562 140.851562 491.101562 C 140.699219 490.726562 140.773438 490.050781 141 489.675781 C 141.300781 489.300781 141.898438 489 142.273438 489 C 142.726562 489.074219 143.324219 489.300781 143.476562 489.75 C 143.699219 490.199219 143.398438 491.550781 143.023438 491.851562 C 142.648438 492.074219 141.523438 491.925781 141.226562 491.625 C 140.851562 491.25 140.699219 490.273438 140.925781 489.824219 C 141.300781 489.226562 142.726562 489.449219 143.773438 488.925781 C 145.273438 488.25 148.050781 486.75 148.648438 485.625 C 148.949219 485.023438 148.726562 484.425781 148.574219 483.824219 C 148.425781 483.226562 148.050781 482.625 147.523438 482.25 C 146.925781 481.726562 146.324219 481.5 145.273438 481.273438 C 143.476562 480.824219 138.449219 481.949219 137.25 481.050781 C 136.648438 480.675781 136.425781 479.699219 136.574219 479.25 C 136.648438 478.800781 137.925781 478.273438 137.925781 478.273438 " clip-rule="nonzero"/></clipPath><clipPath id="bdb95b763d"><path d="M 145.03125 480.683594 L 150.992188 480.683594 L 150.992188 489.210938 L 145.03125 489.210938 Z M 145.03125 480.683594 " clip-rule="nonzero"/></clipPath><clipPath id="61fefc7717"><path d="M 145.050781 487.648438 C 146.398438 480.898438 147.300781 480.601562 147.976562 480.75 C 148.949219 481.050781 150.824219 483.148438 150.976562 484.050781 C 151.050781 484.5 150.675781 485.023438 150.300781 485.25 C 150 485.550781 148.949219 485.476562 148.949219 485.476562 C 148.949219 485.476562 149.925781 485.550781 149.925781 485.476562 C 149.925781 485.398438 148.425781 485.324219 148.199219 484.875 C 147.898438 484.5 148.050781 483.449219 148.351562 483.074219 C 148.574219 482.773438 149.25 482.550781 149.625 482.550781 C 150.074219 482.625 150.601562 483 150.75 483.375 C 150.976562 483.75 150.976562 484.425781 150.75 484.800781 C 150.601562 485.175781 150 485.550781 149.625 485.550781 C 149.101562 485.550781 148.273438 485.023438 148.050781 484.574219 C 147.898438 484.199219 147.898438 483.523438 148.199219 483.226562 C 148.574219 482.851562 149.851562 482.550781 150.300781 482.773438 C 150.675781 483 151.050781 483.898438 150.898438 484.351562 C 150.75 484.875 149.773438 485.625 149.324219 485.550781 C 148.800781 485.476562 148.351562 483.898438 148.050781 483.976562 C 147.601562 484.125 148.050781 488.25 147.449219 488.925781 C 147.074219 489.226562 146.398438 489.226562 146.023438 489.074219 C 145.648438 488.851562 145.050781 487.648438 145.050781 487.648438 " clip-rule="nonzero"/></clipPath><clipPath id="313d6cc83d"><path d="M 140.765625 476.878906 L 150.882812 476.878906 L 150.882812 485.519531 L 140.765625 485.519531 Z M 140.765625 476.878906 " clip-rule="nonzero"/></clipPath><clipPath id="72ceffe7eb"><path d="M 142.800781 476.925781 C 149.625 482.175781 150.824219 484.574219 150.449219 485.175781 C 150.300781 485.550781 149.101562 485.550781 148.648438 485.324219 C 148.273438 485.175781 147.976562 484.574219 147.976562 484.125 C 147.898438 483.75 148.199219 483.074219 148.574219 482.851562 C 149.023438 482.625 150.375 482.851562 150.675781 483.226562 C 150.976562 483.601562 150.898438 484.648438 150.601562 485.023438 C 150.300781 485.398438 149.25 485.625 148.800781 485.398438 C 148.425781 485.25 148.050781 484.726562 147.976562 484.273438 C 147.898438 483.898438 148.574219 483.449219 148.425781 483 C 147.976562 481.875 141.976562 480.523438 141.148438 479.25 C 140.699219 478.726562 140.699219 477.976562 140.925781 477.601562 C 141.226562 477.148438 142.800781 476.925781 142.800781 476.925781 " clip-rule="nonzero"/></clipPath><clipPath id="a77ea88911"><path d="M 138.554688 479 L 148.75 479 L 148.75 486 L 138.554688 486 Z M 138.554688 479 " clip-rule="nonzero"/></clipPath><clipPath id="7bf47a4971"><path d="M 146.476562 486 C 138.601562 480.824219 138.601562 480.074219 138.824219 479.699219 C 139.050781 479.25 140.023438 478.949219 140.550781 479.023438 C 140.925781 479.101562 141.375 479.625 141.523438 480 C 141.675781 480.375 141.601562 481.050781 141.300781 481.425781 C 140.925781 481.726562 139.949219 482.023438 139.5 481.875 C 139.050781 481.648438 138.523438 480.75 138.601562 480.300781 C 138.75 479.773438 139.574219 479.023438 140.324219 479.023438 C 141.976562 478.875 147.074219 482.101562 148.125 483.523438 C 148.648438 484.199219 148.875 485.023438 148.648438 485.476562 C 148.351562 485.925781 146.476562 486 146.476562 486 " clip-rule="nonzero"/></clipPath><clipPath id="d7f19f0221"><path d="M 145.023438 480.382812 L 149.421875 480.382812 L 149.421875 485.429688 L 145.023438 485.429688 Z M 145.023438 480.382812 " clip-rule="nonzero"/></clipPath><clipPath id="c0d9cda55c"><path d="M 146.550781 484.5 C 145.425781 480.75 146.398438 480.375 146.851562 480.449219 C 147.300781 480.523438 147.976562 481.273438 148.050781 481.800781 C 148.125 482.175781 147.824219 482.851562 147.523438 483.074219 C 147.148438 483.375 146.101562 483.375 145.726562 483.148438 C 145.351562 482.925781 145.050781 482.25 145.050781 481.875 C 145.125 481.425781 145.726562 480.601562 146.175781 480.449219 C 146.625 480.300781 147.148438 480.449219 147.601562 480.75 C 148.273438 481.273438 149.324219 482.699219 149.398438 483.601562 C 149.476562 484.273438 149.101562 485.25 148.648438 485.398438 C 148.199219 485.625 146.550781 484.5 146.550781 484.5 " clip-rule="nonzero"/></clipPath><clipPath id="560e378a98"><path d="M 143.007812 481.09375 L 149.546875 481.09375 L 149.546875 487.585938 L 143.007812 487.585938 Z M 143.007812 481.09375 " clip-rule="nonzero"/></clipPath><clipPath id="7c7c3565b9"><path d="M 147.148438 487.5 C 142.875 482.25 143.324219 481.5 143.773438 481.273438 C 144.148438 481.050781 144.824219 481.050781 145.199219 481.351562 C 145.574219 481.648438 145.875 483 145.648438 483.449219 C 145.5 483.824219 144.824219 484.125 144.449219 484.125 C 144 484.125 143.398438 483.824219 143.175781 483.449219 C 142.949219 483.074219 142.949219 482.023438 143.25 481.648438 C 143.550781 481.273438 144.375 481.050781 145.050781 481.273438 C 146.25 481.648438 149.175781 484.648438 149.476562 485.851562 C 149.625 486.449219 149.25 487.199219 148.875 487.425781 C 148.5 487.726562 147.148438 487.5 147.148438 487.5 " clip-rule="nonzero"/></clipPath><clipPath id="78553e8967"><path d="M 141.480469 477.5625 L 149.535156 477.5625 L 149.535156 483.441406 L 141.480469 483.441406 Z M 141.480469 477.5625 " clip-rule="nonzero"/></clipPath><clipPath id="1cc0948f95"><path d="M 143.324219 477.601562 C 147.449219 479.324219 148.949219 480.375 149.324219 481.125 C 149.550781 481.648438 149.550781 482.175781 149.324219 482.550781 C 149.101562 483 148.199219 483.523438 147.75 483.375 C 147.226562 483.226562 146.550781 482.101562 146.550781 481.574219 C 146.550781 481.125 147.074219 480.675781 147.449219 480.523438 C 147.898438 480.375 148.574219 480.375 148.875 480.675781 C 149.25 480.976562 149.550781 481.949219 149.398438 482.398438 C 149.25 482.851562 148.574219 483.375 147.898438 483.375 C 146.550781 483.449219 142.425781 481.050781 141.75 479.851562 C 141.375 479.324219 141.449219 478.574219 141.75 478.199219 C 141.976562 477.824219 143.324219 477.601562 143.324219 477.601562 " clip-rule="nonzero"/></clipPath><clipPath id="9e152b2849"><path d="M 142.179688 477.476562 L 150.941406 477.476562 L 150.941406 484.171875 L 142.179688 484.171875 Z M 142.179688 477.476562 " clip-rule="nonzero"/></clipPath><clipPath id="828c727bc7"><path d="M 143.699219 477.523438 C 149.625 479.625 150.75 481.425781 150.898438 482.324219 C 150.976562 482.851562 150.824219 483.375 150.523438 483.675781 C 150.226562 483.976562 149.550781 484.199219 149.175781 484.125 C 148.800781 484.050781 148.199219 483.601562 148.050781 483.226562 C 147.898438 482.851562 147.976562 482.175781 148.199219 481.800781 C 148.425781 481.5 149.023438 481.125 149.398438 481.125 C 149.851562 481.125 150.449219 481.351562 150.675781 481.726562 C 150.898438 482.175781 150.898438 483.148438 150.601562 483.523438 C 150.375 483.898438 149.773438 484.199219 149.324219 484.125 C 148.726562 483.976562 148.425781 482.324219 147.449219 481.648438 C 146.324219 480.75 143.101562 480.75 142.425781 479.851562 C 142.125 479.398438 142.199219 478.574219 142.425781 478.199219 C 142.648438 477.824219 143.699219 477.523438 143.699219 477.523438 " clip-rule="nonzero"/></clipPath><clipPath id="c9a7ad1f0b"><path d="M 588.753906 337.921875 L 598.328125 337.921875 L 598.328125 348.191406 L 588.753906 348.191406 Z M 588.753906 337.921875 " clip-rule="nonzero"/></clipPath><clipPath id="a5cb5e538d"><path d="M 588.898438 347.175781 C 588.375 342.523438 589.574219 340.875 590.550781 339.976562 C 591.375 339.148438 592.425781 338.773438 593.476562 338.398438 C 594.523438 338.101562 595.875 337.800781 596.773438 338.023438 C 597.375 338.175781 598.125 338.550781 598.273438 339 C 598.425781 339.449219 598.050781 340.425781 597.675781 340.726562 C 597.375 341.023438 596.625 341.101562 596.25 340.875 C 595.875 340.648438 595.351562 339.824219 595.351562 339.300781 C 595.351562 338.925781 595.726562 338.324219 596.101562 338.175781 C 596.625 338.023438 597.898438 338.398438 598.199219 338.851562 C 598.425781 339.300781 598.199219 340.273438 597.824219 340.648438 C 597.226562 341.175781 595.648438 340.726562 594.523438 341.101562 C 593.324219 341.550781 591.300781 342.375 590.925781 343.351562 C 590.625 344.25 591.898438 345.75 591.824219 346.574219 C 591.824219 347.101562 591.601562 347.550781 591.300781 347.851562 C 591 348.074219 590.324219 348.226562 589.949219 348.148438 C 589.574219 348 588.898438 347.175781 588.898438 347.175781 " clip-rule="nonzero"/></clipPath><clipPath id="8ccd2d3096"><path d="M 591.710938 341.523438 L 597.589844 341.523438 L 597.589844 349.484375 L 591.710938 349.484375 Z M 591.710938 341.523438 " clip-rule="nonzero"/></clipPath><clipPath id="25bdcdf4db"><path d="M 595.273438 349.351562 C 592.199219 345.300781 591.675781 344.101562 591.75 343.273438 C 591.824219 342.675781 592.199219 341.925781 592.648438 341.699219 C 593.023438 341.476562 593.773438 341.550781 594.074219 341.851562 C 594.449219 342.148438 594.675781 343.5 594.449219 343.949219 C 594.226562 344.324219 593.625 344.625 593.175781 344.550781 C 592.800781 344.550781 592.125 344.25 591.976562 343.875 C 591.75 343.425781 591.824219 342.449219 592.125 342.074219 C 592.425781 341.699219 593.398438 341.476562 593.925781 341.773438 C 594.75 342.226562 594.976562 345 595.726562 346.050781 C 596.25 346.800781 597.375 347.101562 597.523438 347.773438 C 597.675781 348.226562 597.375 349.050781 597 349.351562 C 596.625 349.648438 595.273438 349.351562 595.273438 349.351562 " clip-rule="nonzero"/></clipPath><clipPath id="85d68c0ff0"><path d="M 588.75 338.011719 L 597.597656 338.011719 L 597.597656 348.171875 L 588.75 348.171875 Z M 588.75 338.011719 " clip-rule="nonzero"/></clipPath><clipPath id="9dd0d85015"><path d="M 588.898438 347.175781 C 588.449219 341.925781 589.125 340.5 590.25 339.675781 C 591.75 338.625 596.175781 337.726562 597.074219 338.398438 C 597.601562 338.699219 597.601562 339.675781 597.449219 340.125 C 597.300781 340.574219 596.773438 340.949219 596.324219 340.949219 C 595.875 341.023438 594.976562 340.5 594.75 340.125 C 594.523438 339.75 594.601562 339.074219 594.824219 338.699219 C 595.050781 338.324219 595.648438 337.949219 596.023438 338.023438 C 596.550781 338.023438 597.375 338.550781 597.523438 339.074219 C 597.675781 339.523438 597.375 340.425781 596.925781 340.726562 C 596.398438 341.175781 595.050781 340.425781 594.148438 340.800781 C 593.023438 341.175781 591.449219 342.375 591.148438 343.425781 C 590.851562 344.324219 591.898438 345.75 591.824219 346.574219 C 591.824219 347.101562 591.601562 347.550781 591.300781 347.851562 C 591 348.074219 590.324219 348.226562 589.949219 348.148438 C 589.574219 348 588.898438 347.175781 588.898438 347.175781 " clip-rule="nonzero"/></clipPath><clipPath id="c898fd1bce"><path d="M 588.085938 335.695312 L 608.414062 335.695312 L 608.414062 346.753906 L 588.085938 346.753906 Z M 588.085938 335.695312 " clip-rule="nonzero"/></clipPath><clipPath id="746989b069"><path d="M 588.148438 345.601562 C 588 339.824219 588.300781 339.375 588.898438 338.773438 C 590.023438 337.800781 592.800781 336.449219 594.449219 336 C 595.800781 335.699219 596.925781 335.699219 598.199219 335.851562 C 599.550781 336 600.898438 336.449219 602.175781 337.125 C 603.601562 337.875 605.25 339.148438 606.300781 340.273438 C 607.199219 341.25 608.175781 342.601562 608.324219 343.425781 C 608.476562 343.949219 608.324219 344.476562 608.023438 344.773438 C 607.726562 345.074219 607.125 345.375 606.675781 345.300781 C 606.226562 345.226562 605.550781 344.476562 605.398438 344.023438 C 605.324219 343.574219 605.550781 342.976562 605.925781 342.675781 C 606.226562 342.449219 606.824219 342.226562 607.273438 342.375 C 607.726562 342.523438 608.324219 343.273438 608.398438 343.726562 C 608.476562 344.175781 608.101562 344.773438 607.800781 345 C 607.425781 345.226562 606.824219 345.449219 606.375 345.226562 C 605.625 344.925781 605.101562 342.898438 604.050781 342 C 602.851562 340.949219 601.050781 339.898438 599.550781 339.375 C 598.050781 338.925781 596.398438 338.773438 594.976562 338.925781 C 593.625 339.074219 592.125 339.675781 591.300781 340.273438 C 590.699219 340.726562 590.324219 341.023438 590.175781 341.699219 C 589.875 342.75 591.226562 345.523438 590.773438 346.199219 C 590.550781 346.648438 589.875 346.800781 589.425781 346.726562 C 588.976562 346.648438 588.148438 345.601562 588.148438 345.601562 " clip-rule="nonzero"/></clipPath><clipPath id="79cec54b5f"><path d="M 494.605469 535.753906 L 506.316406 535.753906 L 506.316406 542.445312 L 494.605469 542.445312 Z M 494.605469 535.753906 " clip-rule="nonzero"/></clipPath><clipPath id="c90e287045"><path d="M 496.125 535.800781 C 502.273438 536.023438 502.875 536.25 503.625 536.851562 C 504.523438 537.675781 506.023438 539.550781 506.25 540.523438 C 506.324219 541.050781 506.175781 541.574219 505.875 541.875 C 505.574219 542.175781 504.976562 542.398438 504.523438 542.398438 C 504.148438 542.324219 503.625 541.875 503.398438 541.5 C 503.25 541.125 503.25 540.523438 503.476562 540.148438 C 503.699219 539.773438 504.226562 539.398438 504.675781 539.398438 C 505.125 539.398438 505.949219 539.925781 506.175781 540.375 C 506.324219 540.75 506.25 541.425781 505.949219 541.800781 C 505.726562 542.101562 505.199219 542.476562 504.675781 542.398438 C 503.773438 542.25 502.800781 539.476562 501.300781 538.800781 C 499.726562 538.050781 496.050781 539.175781 495.148438 538.425781 C 494.699219 538.050781 494.550781 537.226562 494.699219 536.773438 C 494.925781 536.324219 496.125 535.800781 496.125 535.800781 " clip-rule="nonzero"/></clipPath><clipPath id="bce9535d9e"><path d="M 497.523438 538.621094 L 502 538.621094 L 502 553.894531 L 497.523438 553.894531 Z M 497.523438 538.621094 " clip-rule="nonzero"/></clipPath><clipPath id="de8eb53e14"><path d="M 501.976562 540.148438 C 501.601562 546.300781 500.398438 547.800781 500.398438 549.148438 C 500.476562 550.5 502.050781 552.226562 501.824219 553.050781 C 501.675781 553.5 501.074219 553.800781 500.699219 553.875 C 500.25 553.949219 499.648438 553.726562 499.351562 553.425781 C 499.050781 553.125 498.898438 552.449219 498.976562 552.074219 C 499.050781 551.699219 499.5 551.101562 499.875 551.023438 C 500.398438 550.875 501.675781 551.476562 501.898438 551.925781 C 502.050781 552.375 501.675781 553.351562 501.300781 553.648438 C 500.925781 553.875 500.023438 553.949219 499.5 553.5 C 498.523438 552.824219 497.550781 549.824219 497.550781 548.175781 C 497.550781 546.75 498.824219 545.625 499.050781 544.199219 C 499.351562 542.699219 498.601562 540.300781 499.125 539.476562 C 499.425781 538.949219 500.175781 538.574219 500.625 538.648438 C 501.148438 538.800781 501.976562 540.148438 501.976562 540.148438 " clip-rule="nonzero"/></clipPath><clipPath id="43e6977aba"><path d="M 495.347656 537.652344 L 504.746094 537.652344 L 504.746094 547.464844 L 495.347656 547.464844 Z M 495.347656 537.652344 " clip-rule="nonzero"/></clipPath><clipPath id="e35fdcfc69"><path d="M 502.273438 543.375 C 498.523438 539.550781 498.898438 538.574219 499.351562 538.351562 C 499.800781 538.050781 501.449219 539.023438 501.449219 538.949219 C 501.523438 538.949219 499.648438 538.351562 499.726562 538.125 C 499.726562 537.898438 502.425781 537.523438 503.175781 537.976562 C 503.773438 538.351562 504.300781 539.476562 504.226562 540 C 504.148438 540.375 503.625 540.75 503.175781 540.898438 C 502.648438 541.050781 501.976562 540.226562 501.375 540.523438 C 500.175781 541.125 499.050781 546.449219 497.773438 547.125 C 497.101562 547.425781 495.898438 547.199219 495.601562 546.75 C 495.300781 546.375 495.675781 544.949219 496.050781 544.648438 C 496.425781 544.351562 497.476562 544.5 497.851562 544.800781 C 498.226562 545.101562 498.449219 545.699219 498.300781 546.148438 C 498.226562 546.601562 497.476562 547.273438 497.023438 547.425781 C 496.648438 547.5 495.976562 547.199219 495.75 546.898438 C 495.449219 546.601562 495.300781 546.148438 495.375 545.550781 C 495.675781 543.976562 498.523438 538.875 500.25 537.976562 C 501.300781 537.449219 502.875 537.675781 503.476562 538.125 C 504 538.5 504.375 539.476562 504.226562 540 C 504.074219 540.375 503.476562 540.824219 502.800781 540.976562 C 501.824219 541.199219 499.125 540.898438 498.75 540.226562 C 498.449219 539.773438 498.898438 538.648438 499.351562 538.351562 C 499.726562 538.050781 500.398438 538.199219 501 538.425781 C 502.050781 538.875 504.226562 540.523438 504.601562 541.574219 C 504.824219 542.175781 504.675781 543.226562 504.226562 543.523438 C 503.851562 543.824219 502.273438 543.375 502.273438 543.375 " clip-rule="nonzero"/></clipPath><clipPath id="3b9ccd4eda"><path d="M 492.4375 536.464844 L 498.378906 536.464844 L 498.378906 539.769531 L 492.4375 539.769531 Z M 492.4375 536.464844 " clip-rule="nonzero"/></clipPath><clipPath id="26ca06f6e1"><path d="M 493.949219 536.476562 C 498.449219 537.601562 498.300781 538.574219 498 538.949219 C 497.699219 539.324219 496.648438 539.550781 496.199219 539.398438 C 495.824219 539.25 495.449219 538.648438 495.375 538.273438 C 495.300781 537.824219 495.523438 537.148438 495.824219 536.925781 C 496.199219 536.625 497.175781 536.476562 497.625 536.699219 C 498 536.925781 498.375 537.523438 498.375 537.898438 C 498.300781 538.425781 497.851562 539.101562 497.324219 539.398438 C 496.574219 539.851562 494.773438 539.851562 493.949219 539.476562 C 493.273438 539.175781 492.449219 538.351562 492.449219 537.824219 C 492.523438 537.375 493.949219 536.476562 493.949219 536.476562 " clip-rule="nonzero"/></clipPath><clipPath id="9fbaa027b2"><path d="M 495.34375 535.769531 L 506.300781 535.769531 L 506.300781 541 L 495.34375 541 Z M 495.34375 535.769531 " clip-rule="nonzero"/></clipPath><clipPath id="fea5c1299d"><path d="M 496.875 535.800781 C 504.601562 537.226562 505.875 538.199219 506.175781 538.949219 C 506.324219 539.398438 506.25 540 505.949219 540.300781 C 505.726562 540.675781 505.125 541.050781 504.75 540.976562 C 504.226562 540.824219 503.324219 539.851562 503.25 539.324219 C 503.25 538.949219 503.699219 538.351562 504 538.125 C 504.375 537.898438 505.050781 537.898438 505.425781 538.125 C 505.800781 538.351562 506.398438 539.25 506.25 539.699219 C 506.101562 540.226562 505.125 540.898438 504.375 540.898438 C 503.398438 540.898438 502.199219 539.023438 500.851562 538.648438 C 499.425781 538.273438 497.023438 539.175781 496.125 538.648438 C 495.601562 538.273438 495.300781 537.601562 495.375 537.074219 C 495.449219 536.625 496.875 535.800781 496.875 535.800781 " clip-rule="nonzero"/></clipPath><clipPath id="3e5dc15a74"><path d="M 495.347656 535.652344 L 506.261719 535.652344 L 506.261719 540.171875 L 495.347656 540.171875 Z M 495.347656 535.652344 " clip-rule="nonzero"/></clipPath><clipPath id="46c6bfb5c9"><path d="M 504.375 540.148438 C 495.226562 537.75 495.300781 537.074219 495.449219 536.699219 C 495.675781 536.324219 496.574219 535.800781 497.023438 535.800781 C 497.476562 535.800781 498 536.25 498.148438 536.625 C 498.375 536.925781 498.375 537.601562 498.148438 537.976562 C 498 538.351562 497.398438 538.726562 497.023438 538.800781 C 496.574219 538.800781 495.976562 538.574219 495.675781 538.273438 C 495.449219 537.898438 495.300781 537.300781 495.375 536.851562 C 495.523438 536.476562 495.824219 536.101562 496.351562 535.875 C 497.324219 535.5 499.800781 535.648438 501.375 536.023438 C 502.949219 536.324219 505.425781 537 506.023438 537.898438 C 506.324219 538.351562 506.25 539.175781 506.023438 539.550781 C 505.726562 540 504.375 540.148438 504.375 540.148438 " clip-rule="nonzero"/></clipPath><clipPath id="caf7379804"><path d="M 587.386719 339.507812 L 591.613281 339.507812 L 591.613281 347.398438 L 587.386719 347.398438 Z M 587.386719 339.507812 " clip-rule="nonzero"/></clipPath><clipPath id="924968c709"><path d="M 591.601562 341.773438 C 589.574219 347.398438 588.75 347.550781 588.300781 347.324219 C 587.851562 347.175781 587.398438 346.199219 587.398438 345.75 C 587.476562 345.300781 587.925781 344.773438 588.300781 344.625 C 588.601562 344.398438 589.351562 344.398438 589.648438 344.699219 C 590.101562 345 590.476562 346.351562 590.175781 346.800781 C 589.875 347.175781 588.523438 347.398438 588 347.175781 C 587.625 346.949219 587.476562 346.5 587.398438 345.898438 C 587.324219 344.699219 588.226562 341.023438 589.125 340.125 C 589.648438 339.601562 590.625 339.375 591 339.601562 C 591.449219 339.824219 591.601562 341.773438 591.601562 341.773438 " clip-rule="nonzero"/></clipPath><clipPath id="d4205b8ef0"><path d="M 443.542969 261.027344 L 448 261.027344 L 448 271.242188 L 443.542969 271.242188 Z M 443.542969 261.027344 " clip-rule="nonzero"/></clipPath><clipPath id="33a6018b98"><path d="M 447.976562 262.5 C 447.601562 269.023438 446.398438 270.75 445.574219 271.125 C 445.125 271.351562 444.523438 271.199219 444.226562 270.976562 C 443.851562 270.75 443.550781 270.148438 443.550781 269.699219 C 443.550781 269.324219 443.925781 268.726562 444.226562 268.5 C 444.601562 268.273438 445.273438 268.125 445.648438 268.351562 C 446.101562 268.574219 446.625 269.925781 446.398438 270.375 C 446.25 270.824219 445.273438 271.273438 444.824219 271.199219 C 444.300781 271.125 443.625 270.375 443.550781 269.851562 C 443.550781 269.25 444.75 268.574219 444.976562 267.675781 C 445.425781 266.25 444.449219 263.25 445.050781 262.199219 C 445.425781 261.523438 446.175781 261 446.699219 261.074219 C 447.148438 261.074219 447.976562 262.5 447.976562 262.5 " clip-rule="nonzero"/></clipPath><clipPath id="3adc99a0fd"><path d="M 444.964844 261.738281 L 448.339844 261.738281 L 448.339844 269.789062 L 444.964844 269.789062 Z M 444.964844 261.738281 " clip-rule="nonzero"/></clipPath><clipPath id="e74e69d36e"><path d="M 444.976562 268.273438 C 445.726562 261.824219 446.625 261.675781 447.074219 261.824219 C 447.523438 262.050781 447.976562 262.949219 447.976562 263.398438 C 447.976562 263.851562 447.601562 264.375 447.226562 264.601562 C 446.773438 264.75 445.726562 264.601562 445.425781 264.300781 C 445.050781 263.925781 444.976562 262.875 445.199219 262.5 C 445.425781 262.125 446.023438 261.75 446.398438 261.75 C 446.925781 261.75 447.601562 262.199219 447.898438 262.800781 C 448.5 263.851562 448.425781 267.074219 447.976562 268.273438 C 447.75 269.023438 447.148438 269.773438 446.699219 269.773438 C 446.175781 269.773438 444.976562 268.273438 444.976562 268.273438 " clip-rule="nonzero"/></clipPath></defs><path fill="#1eff4f" d="M 432.691406 551.828125 C 432.691406 551.828125 434.183594 552.285156 437.632812 554.125 C 439.011719 554.929688 440.390625 555.621094 442 557 C 443.496094 558.035156 444.875 559.296875 446.367188 560.90625 C 448.207031 562.976562 449.929688 565.390625 451.886719 567.917969 C 473.839844 595.847656 511.882812 644.8125 511.882812 644.8125 C 512.800781 645.960938 514.183594 646.535156 515.5625 646.535156 L 708.082031 646.765625 C 709.691406 646.765625 711.183594 645.960938 712.105469 644.582031 C 712.105469 644.582031 744.402344 595.734375 763.136719 567.6875 C 764.746094 565.273438 766.125 562.746094 767.734375 560.792969 C 769 559.183594 770.261719 557.917969 771.527344 556.769531 C 773.019531 555.503906 774.171875 554.585938 775.433594 554.011719 C 777.042969 553.089844 777.964844 553.4375 778.882812 552.746094 C 779.800781 551.941406 779.917969 551.136719 779.917969 551.136719 C 783.019531 546.425781 781.757812 539.988281 776.929688 536.886719 C 772.214844 533.78125 765.78125 535.160156 762.675781 539.875 C 762.675781 539.875 761.988281 540.21875 761.640625 541.484375 C 761.414062 542.632812 762.101562 543.207031 761.871094 545.160156 C 761.871094 546.539062 761.527344 547.917969 760.953125 549.757812 C 760.378906 551.367188 759.6875 553.089844 758.769531 554.929688 C 757.503906 557.230469 755.894531 559.414062 754.285156 561.941406 C 738.308594 586.652344 711.875 627.457031 705.550781 637.226562 L 517.859375 637.457031 C 510.847656 628.375 478.894531 586.882812 459.703125 561.828125 C 457.746094 559.296875 455.792969 557 454.414062 554.816406 C 453.148438 552.976562 452.230469 551.253906 451.539062 549.527344 C 450.734375 547.574219 450.390625 546.078125 450.046875 544.585938 C 449.011719 540.792969 449.011719 539.183594 449.011719 539.183594 C 445.449219 534.699219 439.011719 533.898438 434.53125 537.34375 C 430.046875 540.90625 429.242188 547.34375 432.691406 551.828125 Z M 432.691406 551.828125 " fill-opacity="1" fill-rule="evenodd"/><path fill="#1eff4f" d="M 506.941406 539.757812 C 507.285156 541.136719 506.25 540.90625 506.25 543.089844 C 506.25 544.125 506.480469 545.046875 507.054688 546.425781 C 507.285156 547.230469 507.628906 548.035156 508.089844 548.839844 C 508.78125 549.757812 509.699219 550.675781 510.617188 551.710938 C 520.617188 563.78125 536.9375 583.203125 541.765625 588.953125 L 665.667969 589.179688 C 670.496094 583.433594 686.472656 564.011719 696.242188 551.941406 C 696.933594 551.136719 697.738281 550.332031 698.195312 549.527344 C 698.886719 548.492188 699.347656 547.574219 699.574219 546.65625 C 700.152344 545.160156 700.152344 544.242188 700.265625 543.089844 C 700.496094 539.644531 700.152344 538.953125 700.152344 538.953125 C 703.828125 534.585938 710.378906 534.011719 714.746094 537.574219 C 719.117188 541.253906 719.691406 547.804688 716.011719 552.171875 C 716.011719 552.171875 715.324219 551.941406 711.988281 552.863281 C 710.839844 553.089844 709.921875 553.320312 708.542969 554.125 C 707.621094 554.585938 706.816406 555.160156 705.898438 555.964844 C 705.207031 556.652344 704.632812 557.574219 703.945312 558.378906 C 691.988281 572.285156 671.417969 596.652344 671.417969 596.652344 C 670.496094 597.800781 669.230469 598.375 667.851562 598.375 L 539.46875 598.605469 C 538.089844 598.605469 536.824219 597.917969 535.90625 596.882812 C 535.90625 596.882812 514.757812 572.515625 502.574219 558.609375 C 501.652344 557.574219 500.847656 556.539062 500.042969 555.734375 C 499.507812 555.351562 499.011719 555.007812 498.550781 554.699219 C 499.699219 549.527344 504.410156 529.757812 506.941406 539.757812 Z M 490.503906 552.171875 C 486.828125 547.917969 487.285156 541.367188 491.652344 537.691406 C 495.90625 534.125 502.226562 534.472656 498.550781 554.699219 C 498.433594 555.390625 498.320312 555.851562 498.320312 555.851562 L 498.550781 554.699219 C 498.320312 554.546875 498.089844 554.394531 497.859375 554.242188 C 496.480469 553.550781 495.675781 553.207031 494.640625 552.976562 C 493.492188 552.863281 493.035156 553.089844 492.574219 553.207031 L 498.320312 555.851562 L 492.574219 553.207031 Z M 491.308594 553.089844 C 490.847656 552.859375 490.621094 552.285156 490.621094 552.285156 L 492.574219 553.207031 C 492.230469 553.320312 492 553.4375 491.308594 553.089844 Z M 491.308594 553.089844 " fill-opacity="1" fill-rule="evenodd"/><path fill="#1eff4f" d="M 594.867188 347.929688 C 590.5 337.8125 587.511719 341.835938 587.625 346.546875 C 587.742188 352.179688 592.339844 356.546875 597.972656 356.546875 L 598.199219 356.546875 L 597.972656 356.546875 C 597.972656 356.546875 598.660156 357.007812 599.582031 356.546875 C 600.84375 355.972656 600.269531 355.167969 601.765625 354.019531 C 602.796875 353.214844 603.71875 352.753906 605.097656 352.296875 C 606.132812 351.835938 607.167969 351.605469 608.199219 351.492188 C 610.5 351.144531 612.566406 351.03125 613.949219 351.03125 C 613.949219 351.03125 748.425781 431.027344 766.8125 441.945312 C 767.390625 454.933594 769.457031 511.367188 766.125 534.929688 C 765.894531 536.539062 765.433594 537.917969 764.976562 539.183594 C 764.515625 540.21875 764.171875 540.90625 763.710938 541.710938 C 761.757812 544.816406 760.953125 545.503906 760.953125 545.503906 C 760.953125 551.253906 765.664062 555.851562 771.296875 555.851562 C 776.929688 555.851562 781.640625 551.253906 781.640625 545.503906 C 781.640625 545.503906 780.835938 544.816406 778.882812 541.710938 C 778.421875 540.90625 778.078125 540.21875 777.617188 539.183594 C 777.160156 537.917969 776.699219 536.539062 776.46875 534.929688 C 772.675781 508.265625 775.894531 439.304688 775.894531 439.304688 C 775.894531 437.695312 774.976562 436.316406 773.597656 435.394531 L 618.199219 341.375 C 617.394531 340.800781 616.359375 340.570312 615.328125 340.570312 C 615.328125 340.570312 611.878906 341.03125 607.972656 340.570312 C 606.9375 340.457031 605.785156 340.34375 604.753906 339.996094 C 603.375 339.539062 602.453125 339.078125 601.417969 338.386719 C 599.808594 337.238281 600.269531 336.433594 599.121094 335.972656 C 591.878906 332.984375 592.914062 341.03125 594.867188 347.925781 Z M 594.867188 347.929688 " fill-opacity="1" fill-rule="evenodd"/><path fill="#1eff4f" d="M 776.585938 260.34375 C 776.585938 260.34375 775.089844 259.886719 771.640625 258.046875 C 770.261719 257.242188 768.882812 256.550781 767.273438 255.171875 C 765.78125 254.140625 764.402344 252.875 762.90625 251.265625 C 761.066406 249.195312 759.34375 246.78125 757.390625 244.253906 C 735.4375 216.324219 697.390625 167.359375 697.390625 167.359375 C 696.472656 166.210938 695.09375 165.636719 693.714844 165.636719 L 501.195312 165.40625 C 499.585938 165.40625 498.089844 166.210938 497.171875 167.589844 C 497.171875 167.589844 464.875 216.4375 446.140625 244.484375 C 444.53125 246.898438 443.148438 249.425781 441.542969 251.378906 C 440.277344 252.988281 439.011719 254.253906 437.75 255.402344 C 436.253906 256.667969 435.105469 257.585938 433.839844 258.160156 C 432.230469 259.082031 431.3125 258.734375 430.390625 259.425781 C 429.472656 260.230469 429.359375 261.035156 429.359375 261.035156 C 426.253906 265.746094 427.519531 272.183594 432.347656 275.289062 C 437.058594 278.390625 443.496094 277.011719 446.597656 272.300781 C 446.597656 272.300781 447.289062 271.953125 447.632812 270.691406 C 447.863281 269.539062 447.171875 268.964844 447.402344 267.011719 C 447.519531 265.632812 447.746094 264.253906 448.324219 262.414062 C 448.898438 260.804688 449.585938 259.082031 450.507812 257.242188 C 451.769531 254.941406 453.378906 252.757812 454.988281 250.230469 C 470.964844 225.519531 497.402344 184.714844 503.722656 174.945312 L 691.53125 174.71875 C 698.425781 183.796875 730.378906 225.289062 749.574219 250.347656 C 751.527344 252.875 753.480469 255.171875 754.859375 257.355469 C 756.125 259.195312 757.042969 260.921875 757.734375 262.644531 C 758.539062 264.597656 758.882812 266.09375 759.226562 267.585938 C 760.261719 271.378906 760.261719 272.988281 760.261719 272.988281 C 763.824219 277.472656 770.261719 278.277344 774.746094 274.828125 C 779.226562 271.265625 780.03125 264.828125 776.582031 260.34375 Z M 776.585938 260.34375 " fill-opacity="1" fill-rule="evenodd"/><path fill="#1eff4f" d="M 721.183594 265.863281 C 722.332031 263.21875 721.757812 260.691406 717.964844 258.964844 C 716.703125 258.390625 716.816406 259.539062 714.632812 259.195312 C 713.597656 258.964844 712.792969 258.621094 711.414062 257.933594 C 710.726562 257.472656 710.035156 257.011719 709.230469 256.4375 C 708.425781 255.632812 707.621094 254.597656 706.703125 253.5625 C 694.519531 239.65625 673.371094 215.289062 673.371094 215.289062 C 672.449219 214.253906 671.1875 213.566406 669.808594 213.566406 L 541.421875 213.796875 C 540.042969 213.796875 538.777344 214.371094 537.859375 215.519531 C 537.859375 215.519531 517.285156 239.886719 505.332031 253.792969 C 504.640625 254.597656 504.066406 255.519531 503.378906 256.207031 C 502.457031 257.011719 501.652344 257.585938 500.734375 258.046875 C 499.355469 258.851562 498.433594 259.082031 497.285156 259.3125 C 493.953125 260.230469 493.261719 260 493.261719 260 C 489.585938 264.367188 490.160156 270.917969 494.527344 274.597656 C 498.894531 278.160156 505.445312 277.585938 509.125 273.21875 C 509.125 273.21875 508.78125 272.527344 509.007812 269.082031 C 509.125 267.929688 509.125 267.011719 509.699219 265.519531 C 509.929688 264.597656 510.390625 263.679688 511.078125 262.644531 C 511.539062 261.839844 512.34375 261.035156 513.03125 260.230469 C 522.800781 248.160156 538.777344 228.738281 543.605469 222.992188 L 667.507812 223.21875 C 672.335938 228.96875 688.65625 248.390625 698.65625 260.460938 C 699.574219 261.496094 700.496094 262.414062 701.183594 263.332031 C 701.644531 264.136719 701.988281 264.941406 702.21875 265.746094 C 702.792969 267.125 703.023438 268.046875 703.023438 269.082031 C 703.023438 271.265625 701.988281 271.035156 702.335938 272.414062 C 703.828125 278.503906 710.953125 276.894531 710.953125 276.894531 C 706.816406 277.699219 713.367188 278.160156 717.621094 274.484375 C 720.265625 272.300781 721.527344 269.082031 721.183594 265.863281 Z M 721.183594 265.863281 " fill-opacity="1" fill-rule="evenodd"/><path fill="#1eff4f" d="M 717.160156 459.1875 C 717.507812 456.542969 716.242188 454.703125 712.21875 454.476562 C 710.839844 454.476562 711.53125 455.394531 709.34375 455.855469 C 708.3125 456.085938 707.621094 456.085938 706.128906 455.96875 C 705.324219 455.855469 704.519531 455.625 703.597656 455.28125 C 701.875 454.703125 700.265625 453.554688 698.3125 452.40625 C 676.242188 440.222656 628.660156 413.671875 586.132812 389.421875 C 554.410156 371.375 524.640625 355.859375 511.882812 346.664062 C 510.734375 345.742188 509.699219 344.941406 509.007812 344.019531 C 508.089844 342.753906 507.859375 342.066406 507.402344 341.03125 C 506.136719 337.8125 506.25 337.355469 506.25 337.355469 C 501.308594 334.480469 494.988281 336.203125 492.230469 341.148438 C 489.355469 346.089844 491.078125 352.410156 496.023438 355.285156 C 496.023438 355.285156 496.480469 354.824219 499.816406 354.363281 C 500.964844 354.25 501.652344 354.019531 503.261719 354.25 C 504.410156 354.363281 505.5625 354.824219 506.941406 355.398438 C 521.421875 361.605469 549.925781 379.304688 581.648438 397.351562 C 624.175781 421.488281 671.300781 448.84375 693.140625 461.601562 C 695.09375 462.636719 696.933594 463.554688 698.3125 464.589844 C 699.117188 465.277344 699.691406 465.855469 700.152344 466.542969 C 700.957031 467.691406 701.414062 468.265625 701.761719 469.300781 C 702.335938 471.371094 701.300781 471.257812 701.988281 472.40625 C 704.289062 475.96875 708.082031 474.359375 708.082031 474.359375 C 707.964844 475.851562 714.289062 474.128906 717.046875 469.1875 C 718.886719 465.96875 718.769531 462.175781 717.160156 459.1875 Z M 717.160156 459.1875 " fill-opacity="1" fill-rule="evenodd"/><path fill="#1eff4f" d="M 606.707031 456.660156 C 605.902344 455.28125 604.523438 454.820312 601.878906 455.96875 C 600.730469 456.542969 601.1875 457.347656 599.808594 458.382812 C 598.777344 459.1875 597.742188 459.648438 596.59375 460.105469 C 595.980469 460.335938 595.402344 460.488281 594.867188 460.566406 C 589.464844 457.464844 571.421875 447.003906 549.582031 434.132812 C 508.433594 409.878906 453.722656 377.007812 442.460938 370.226562 C 441.886719 357.351562 439.816406 300.804688 443.035156 277.242188 C 443.265625 275.632812 443.726562 274.253906 444.183594 272.988281 C 444.644531 271.953125 444.988281 271.265625 445.5625 270.460938 C 447.519531 267.242188 448.324219 266.667969 448.324219 266.667969 C 448.324219 260.921875 443.609375 256.324219 437.976562 256.324219 C 432.347656 256.324219 427.632812 260.921875 427.632812 266.667969 C 427.632812 266.667969 428.4375 267.242188 430.390625 270.460938 C 430.96875 271.265625 431.3125 271.953125 431.773438 272.988281 C 432.230469 274.253906 432.691406 275.632812 432.921875 277.242188 C 436.484375 303.90625 433.496094 372.871094 433.496094 372.871094 C 433.496094 374.476562 434.300781 375.859375 435.679688 376.777344 C 435.679688 376.777344 498.894531 414.589844 544.523438 442.40625 C 570.617188 458.382812 590.960938 471.027344 590.960938 471.027344 C 591.765625 471.601562 592.800781 471.832031 593.832031 471.832031 C 593.832031 471.832031 594.984375 471.945312 596.59375 472.636719 C 597.742188 473.09375 598.777344 473.441406 599.808594 474.246094 C 601.191406 475.394531 600.730469 476.082031 601.878906 476.65625 C 602.570312 477.003906 603.257812 476.65625 603.257812 476.65625 C 608.890625 476.65625 613.488281 472.058594 613.488281 466.3125 C 613.488281 461.832031 610.613281 458.039062 606.707031 456.660156 Z M 606.707031 456.660156 " fill-opacity="1" fill-rule="evenodd"/><path fill="#1eff4f" d="M 85.003906 422.523438 C 85.003906 422.523438 86.15625 427.003906 87.417969 435.28125 C 88.109375 438.957031 88.796875 443.097656 89.257812 448.039062 C 89.71875 453.210938 90.0625 458.84375 90.292969 465.164062 C 92.015625 519.644531 90.980469 609.640625 90.753906 631.019531 L 59.257812 631.019531 C 59.257812 631.019531 59.257812 220.921875 59.257812 172.53125 L 135.691406 172.648438 L 135.460938 317.355469 C 135.460938 319.996094 137.761719 322.296875 140.519531 322.296875 C 140.519531 322.296875 230.515625 320.917969 282.121094 322.871094 C 285.878906 323.023438 289.402344 323.253906 292.695312 323.5625 C 297.292969 324.136719 301.203125 324.59375 304.652344 325.285156 C 307.984375 325.976562 310.28125 327.238281 312.582031 327.582031 C 315.683594 328.042969 317.523438 327.582031 317.523438 327.582031 C 323.15625 327.582031 327.867188 322.984375 327.867188 317.355469 C 327.867188 311.609375 323.15625 307.011719 317.523438 307.011719 C 317.523438 307.011719 315.683594 306.550781 312.582031 307.011719 C 310.28125 307.355469 307.984375 308.617188 304.652344 309.308594 C 301.203125 310 297.292969 310.457031 292.695312 311.03125 C 289.402344 311.339844 285.878906 311.570312 282.121094 311.722656 C 237.757812 313.332031 165 312.640625 145.460938 312.410156 C 145.460938 312.410156 145.230469 167.933594 145.230469 167.933594 C 145.230469 165.292969 143.046875 163.109375 140.519531 163.109375 L 54.660156 163.222656 C 52.132812 163.222656 50.0625 165.292969 50.0625 167.933594 L 50.0625 635.730469 C 50.0625 638.257812 52.132812 640.328125 54.660156 640.328125 L 95.347656 640.328125 C 97.878906 640.328125 99.945312 638.257812 99.945312 635.730469 C 99.945312 635.730469 98.335938 527.34375 100.292969 465.164062 C 100.523438 458.84375 100.867188 453.210938 101.324219 448.039062 C 101.902344 443.097656 102.589844 438.957031 103.164062 435.28125 C 104.542969 427.003906 105.578125 422.523438 105.578125 422.523438 C 105.578125 416.773438 100.980469 412.179688 95.347656 412.179688 C 89.601562 412.179688 85.003906 416.773438 85.003906 422.523438 Z M 85.003906 422.523438 " fill-opacity="1" fill-rule="evenodd"/><path fill="#1eff4f" d="M 130.175781 487.460938 C 130.175781 481.714844 134.773438 477.117188 140.519531 477.117188 C 146.152344 477.117188 150.75 481.714844 140.519531 497.691406 C 140.519531 497.691406 143.507812 494.242188 146.496094 491.140625 L 146.613281 490.910156 C 147.300781 489.875 147.417969 489.761719 148.222656 489.300781 L 148.222656 489.1875 C 151.09375 486.3125 153.046875 484.589844 150.75 488.152344 C 149.828125 489.644531 150.519531 487.691406 148.222656 489.1875 L 147.53125 489.992188 L 146.496094 491.140625 C 146.152344 491.601562 145.921875 491.945312 145.808594 492.519531 C 145.578125 493.667969 145.808594 494.933594 145.691406 496.3125 C 145.460938 512.058594 145.003906 545.964844 145.003906 576.421875 C 145.003906 599.066406 143.738281 620.101562 145.460938 629.753906 C 145.691406 630.675781 145.921875 631.480469 146.382812 632.167969 C 149.714844 636.878906 150.75 635.730469 150.75 635.730469 C 150.75 641.363281 146.152344 645.960938 140.519531 645.960938 C 134.773438 645.960938 130.175781 641.363281 130.175781 635.730469 C 130.175781 635.730469 131.210938 636.878906 134.65625 632.167969 C 135.117188 631.480469 135.234375 630.675781 135.460938 629.753906 C 137.1875 620.101562 135.921875 599.066406 135.921875 576.421875 C 135.921875 545.964844 135.460938 512.058594 135.234375 496.3125 C 135.234375 494.933594 135.347656 493.667969 135.117188 492.519531 L 135.003906 492.289062 L 131.324219 488.609375 L 135.003906 492.289062 L 140.519531 497.691406 L 135.003906 492.289062 C 134.886719 491.714844 134.65625 491.371094 134.429688 490.910156 C 133.625 489.875 133.507812 489.761719 132.703125 489.300781 C 132.015625 488.726562 131.667969 488.609375 131.324219 488.609375 Z M 130.175781 488.152344 C 130.0625 487.921875 130.175781 487.460938 130.175781 487.460938 L 131.324219 488.609375 C 130.75 488.609375 130.863281 489.1875 130.175781 488.152344 Z M 130.175781 488.152344 " fill-opacity="1" fill-rule="evenodd"/><path fill="#1eff4f" d="M 303.847656 413.097656 C 303.269531 411.027344 301.777344 410.222656 298.558594 412.179688 C 297.179688 412.980469 298.789062 412.867188 297.066406 414.820312 C 296.488281 415.511719 296.03125 415.855469 294.882812 416.429688 C 294.304688 416.773438 293.730469 417.003906 292.925781 417.121094 C 291.546875 417.351562 289.9375 417.234375 288.101562 417.234375 C 262.125 417.578125 199.710938 417.808594 187.988281 417.925781 C 181.550781 411.257812 156.726562 385.167969 148.796875 372.066406 C 148.21875 371.144531 147.875 370.226562 147.761719 369.304688 C 146.957031 364.019531 148.21875 363.445312 148.21875 363.445312 C 144.542969 359.078125 137.992188 358.617188 133.738281 362.410156 C 129.371094 366.085938 129.027344 372.640625 132.703125 376.890625 C 132.703125 376.890625 133.507812 375.742188 138.679688 377.238281 C 139.601562 377.464844 140.40625 377.925781 141.210938 378.730469 C 155.003906 389.648438 182.703125 425.394531 182.703125 425.394531 C 183.507812 426.429688 184.769531 427.003906 186.148438 427.003906 C 186.148438 427.003906 259.367188 427.347656 288.101562 427.695312 C 289.9375 427.695312 291.546875 427.578125 292.925781 427.808594 C 293.730469 427.925781 294.304688 428.152344 294.882812 428.5 C 296.03125 429.074219 296.488281 429.417969 297.066406 430.109375 C 298.789062 432.0625 297.179688 431.945312 298.558594 432.75 C 299.019531 433.097656 299.476562 432.75 299.476562 432.75 C 305.109375 432.75 309.707031 428.152344 309.707031 422.523438 C 309.707031 418.269531 307.292969 414.707031 303.847656 413.097656 Z M 303.847656 413.097656 " fill-opacity="1" fill-rule="evenodd"/><path fill="#1eff4f" d="M 293.386719 644.007812 C 293.5 644.582031 294.421875 644.8125 294.882812 645.042969 C 296.144531 645.617188 297.523438 645.847656 298.902344 645.960938 L 299.476562 645.960938 C 301.546875 645.960938 303.617188 645.386719 305.226562 644.238281 C 308.902344 642.628906 312.464844 639.640625 309.707031 634.695312 C 309.019531 633.433594 308.902344 634.582031 307.179688 632.972656 C 306.488281 632.28125 306.144531 631.824219 305.570312 630.558594 C 305.226562 629.871094 304.996094 629.179688 304.765625 628.261719 C 304.535156 626.652344 304.765625 624.925781 304.765625 622.859375 C 304.421875 600.332031 303.960938 551.480469 303.960938 507.804688 C 303.960938 475.046875 302.695312 445.050781 304.421875 431.027344 C 304.652344 429.648438 304.878906 428.5 305.339844 427.578125 C 305.914062 426.199219 306.488281 425.855469 307.179688 425.050781 C 309.363281 422.40625 309.707031 422.523438 309.707031 422.523438 C 309.707031 416.777344 305.109375 412.179688 299.476562 412.179688 C 293.730469 412.179688 289.132812 416.777344 289.132812 422.523438 C 289.132812 422.523438 289.59375 422.40625 291.777344 425.050781 C 292.46875 425.855469 292.925781 426.199219 293.617188 427.578125 C 294.078125 428.5 294.304688 429.648438 294.421875 431.027344 C 296.144531 445.050781 294.882812 475.046875 294.882812 507.804688 C 294.882812 551.480469 294.421875 600.332031 294.191406 622.859375 C 294.191406 624.925781 294.304688 626.652344 294.078125 628.261719 C 293.960938 629.179688 293.730469 629.871094 293.386719 630.558594 C 292.8125 631.824219 292.46875 632.28125 291.664062 632.972656 C 290.054688 634.582031 289.824219 633.433594 289.132812 634.695312 C 286.492188 639.410156 289.824219 642.398438 293.386719 644.007812 Z M 293.386719 644.007812 " fill-opacity="1" fill-rule="evenodd"/><path fill="#1eff4f" d="M 392.234375 158.511719 C 391.773438 156.558594 390.164062 155.867188 386.945312 157.589844 C 385.796875 158.164062 386.832031 158.511719 385.453125 159.890625 C 384.761719 160.695312 384.300781 161.039062 383.039062 161.613281 C 382.347656 161.957031 381.773438 162.1875 380.96875 162.304688 C 363.382812 165.40625 317.523438 163.222656 317.523438 163.222656 C 314.878906 163.222656 312.8125 165.292969 312.8125 167.9375 C 312.8125 167.9375 313.042969 210.234375 312.925781 250.230469 C 312.925781 271.378906 312.695312 291.839844 312.582031 305.171875 C 312.582031 307.585938 312.695312 309.769531 312.464844 311.609375 C 312.351562 312.640625 312.238281 313.5625 311.890625 314.367188 C 311.316406 315.859375 310.742188 316.433594 310.054688 317.355469 C 307.867188 320.457031 307.179688 320.457031 307.179688 320.457031 C 307.179688 326.089844 311.890625 330.800781 317.523438 330.800781 C 323.15625 330.800781 327.867188 326.089844 327.867188 320.457031 C 327.867188 320.457031 327.179688 320.457031 324.996094 317.355469 C 324.304688 316.433594 323.730469 315.859375 323.15625 314.367188 C 322.8125 313.5625 322.695312 312.640625 322.582031 311.609375 C 322.351562 309.769531 322.464844 307.585938 322.464844 305.171875 C 322.351562 291.839844 322.121094 271.378906 322.121094 250.230469 C 322.007812 218.046875 322.121094 184.257812 322.234375 172.417969 C 334.304688 171.957031 366.832031 170.925781 380.96875 173.453125 C 381.773438 173.566406 382.347656 173.796875 383.039062 174.140625 C 384.300781 174.71875 384.761719 175.0625 385.453125 175.867188 C 386.832031 177.246094 385.796875 177.589844 386.945312 178.164062 C 387.519531 178.511719 387.980469 178.164062 387.980469 178.164062 C 393.613281 178.164062 398.324219 173.566406 398.324219 167.9375 C 398.324219 163.683594 395.796875 160.121094 392.234375 158.511719 Z M 392.234375 158.511719 " fill-opacity="1" fill-rule="evenodd"/><path fill="#1eff4f" d="M 243.503906 382.753906 C 243.503906 382.753906 247.296875 381.605469 253.847656 380.226562 C 256.605469 379.535156 259.710938 378.960938 263.273438 378.5 C 265.226562 378.269531 267.296875 378.15625 269.480469 377.925781 C 271.433594 377.8125 273.503906 377.582031 275.570312 377.464844 C 294.191406 376.777344 315.914062 377.007812 325.339844 377.238281 L 325.683594 635.730469 C 325.683594 638.144531 327.636719 640.214844 330.167969 640.214844 L 387.980469 640.214844 C 390.507812 640.214844 392.578125 638.144531 392.578125 635.730469 C 392.578125 635.730469 392.808594 333.101562 393.265625 214.714844 C 393.265625 208.507812 393.152344 202.875 393.382812 197.820312 C 393.535156 193.679688 393.878906 189.925781 394.417969 186.554688 C 394.875 183.105469 395.335938 180.117188 396.027344 177.589844 C 396.832031 174.945312 397.980469 173.335938 398.324219 171.613281 C 398.667969 169.199219 398.324219 167.9375 398.324219 167.9375 C 398.324219 162.1875 393.613281 157.589844 387.980469 157.589844 C 382.347656 157.589844 377.636719 162.1875 377.636719 167.9375 C 377.636719 167.9375 377.292969 169.199219 377.636719 171.613281 C 377.980469 173.335938 379.128906 174.945312 379.933594 177.589844 C 380.625 180.117188 381.085938 183.105469 381.542969 186.554688 C 382.082031 189.925781 382.425781 193.679688 382.578125 197.820312 C 382.808594 202.875 382.691406 208.507812 382.691406 214.714844 C 383.039062 324.59375 383.382812 592.972656 383.382812 631.132812 L 334.765625 631.132812 L 334.996094 372.523438 C 334.996094 369.765625 332.808594 367.695312 330.167969 367.695312 C 330.167969 367.695312 300.167969 368.386719 275.570312 367.46875 C 273.503906 367.351562 271.433594 367.121094 269.480469 367.007812 C 267.296875 366.777344 265.226562 366.664062 263.273438 366.433594 C 259.710938 365.972656 256.605469 365.398438 253.847656 364.707031 C 247.296875 363.328125 243.503906 362.179688 243.503906 362.179688 C 237.757812 362.179688 233.160156 366.777344 233.160156 372.523438 C 233.160156 378.15625 237.757812 382.753906 243.503906 382.753906 Z M 243.503906 382.753906 " fill-opacity="1" fill-rule="evenodd"/><path fill="#1eff4f" d="M 150.75 421.371094 C 151.898438 418.613281 151.4375 416.085938 147.300781 414.707031 C 145.921875 414.246094 146.613281 415.28125 144.429688 415.167969 C 143.394531 415.167969 142.820312 415.050781 141.554688 414.589844 C 141.09375 414.363281 140.636719 414.132812 140.175781 413.785156 C 139.640625 413.402344 139.140625 413.019531 138.679688 412.636719 C 135.347656 409.765625 131.667969 405.398438 127.53125 400.914062 C 116.613281 389.535156 103.96875 375.972656 100.0625 371.71875 C 99.945312 363.097656 99.832031 325.515625 99.832031 289.882812 C 99.945312 268.390625 100.0625 247.472656 100.175781 234.023438 C 100.292969 231.152344 100.0625 228.621094 100.292969 226.554688 C 100.40625 225.863281 100.636719 225.289062 100.867188 224.714844 C 101.554688 223.21875 102.015625 222.53125 102.707031 221.613281 C 105.003906 218.507812 105.578125 218.507812 105.578125 218.507812 C 105.578125 212.761719 100.980469 208.164062 95.347656 208.164062 C 89.601562 208.164062 85.003906 212.761719 85.003906 218.507812 C 85.003906 218.507812 85.695312 218.507812 87.992188 221.613281 C 88.683594 222.53125 89.144531 223.21875 89.71875 224.714844 C 89.949219 225.289062 90.175781 225.863281 90.292969 226.554688 C 90.636719 228.621094 90.40625 231.152344 90.40625 234.023438 C 90.523438 247.472656 90.753906 268.390625 90.753906 289.882812 C 90.867188 330.570312 90.636719 373.671875 90.636719 373.671875 C 90.636719 374.824219 90.980469 375.972656 91.902344 376.777344 C 91.902344 376.777344 107.304688 393.789062 120.0625 407.808594 C 124.082031 412.40625 128.222656 416.429688 130.863281 419.878906 C 131.25 420.414062 131.554688 420.914062 131.785156 421.371094 C 132.128906 421.949219 132.359375 422.40625 132.472656 422.980469 C 132.933594 424.246094 132.933594 424.820312 132.933594 425.855469 C 132.820312 428.039062 131.785156 427.234375 132.128906 428.730469 C 133.625 434.476562 140.519531 432.75 140.519531 432.75 C 136.726562 433.671875 143.277344 433.902344 147.417969 429.992188 C 149.945312 427.695312 151.09375 424.476562 150.75 421.371094 Z M 150.75 421.371094 " fill-opacity="1" fill-rule="evenodd"/><g clip-path="url(#336e8d9410)"><g clip-path="url(#efd55a3433)"><path fill="#00ff00" d="M 127.949219 480.976562 L 143.101562 480.976562 L 143.101562 495.449219 L 127.949219 495.449219 Z M 127.949219 480.976562 " fill-opacity="1" fill-rule="nonzero"/></g></g><g clip-path="url(#0deb0f1b32)"><g clip-path="url(#d439e4bf66)"><path fill="#00ff00" d="M 136.351562 483.898438 L 148.949219 483.898438 L 148.949219 506.6875 L 136.351562 506.6875 Z M 136.351562 483.898438 " fill-opacity="1" fill-rule="nonzero"/></g></g><g clip-path="url(#5ade6a11e1)"><g clip-path="url(#772ddd933f)"><path fill="#00ff00" d="M 133.574219 475.273438 L 154.457031 475.273438 L 154.457031 495.074219 L 133.574219 495.074219 Z M 133.574219 475.273438 " fill-opacity="1" fill-rule="nonzero"/></g></g><g clip-path="url(#bdb95b763d)"><g clip-path="url(#61fefc7717)"><path fill="#00ff00" d="M 142.050781 477.75 L 153.976562 477.75 L 153.976562 492.097656 L 142.050781 492.097656 Z M 142.050781 477.75 " fill-opacity="1" fill-rule="nonzero"/></g></g><g clip-path="url(#313d6cc83d)"><g clip-path="url(#72ceffe7eb)"><path fill="#00ff00" d="M 137.925781 473.925781 L 153.667969 473.925781 L 153.667969 488.476562 L 137.925781 488.476562 Z M 137.925781 473.925781 " fill-opacity="1" fill-rule="nonzero"/></g></g><g clip-path="url(#a77ea88911)"><g clip-path="url(#7bf47a4971)"><path fill="#00ff00" d="M 135.601562 476.023438 L 151.65625 476.023438 L 151.65625 489.074219 L 135.601562 489.074219 Z M 135.601562 476.023438 " fill-opacity="1" fill-rule="nonzero"/></g></g><g clip-path="url(#d7f19f0221)"><g clip-path="url(#c0d9cda55c)"><path fill="#00ff00" d="M 142.050781 477.449219 L 152.476562 477.449219 L 152.476562 488.484375 L 142.050781 488.484375 Z M 142.050781 477.449219 " fill-opacity="1" fill-rule="nonzero"/></g></g><g clip-path="url(#560e378a98)"><g clip-path="url(#7c7c3565b9)"><path fill="#00ff00" d="M 139.949219 478.273438 L 152.558594 478.273438 L 152.558594 490.5 L 139.949219 490.5 Z M 139.949219 478.273438 " fill-opacity="1" fill-rule="nonzero"/></g></g><g clip-path="url(#78553e8967)"><g clip-path="url(#1cc0948f95)"><path fill="#00ff00" d="M 138.75 474.601562 L 152.496094 474.601562 L 152.496094 486.449219 L 138.75 486.449219 Z M 138.75 474.601562 " fill-opacity="1" fill-rule="nonzero"/></g></g><g clip-path="url(#9e152b2849)"><g clip-path="url(#828c727bc7)"><path fill="#00ff00" d="M 139.425781 474.523438 L 153.894531 474.523438 L 153.894531 487.125 L 139.425781 487.125 Z M 139.425781 474.523438 " fill-opacity="1" fill-rule="nonzero"/></g></g><g clip-path="url(#c9a7ad1f0b)"><g clip-path="url(#a5cb5e538d)"><path fill="#00ff00" d="M 585.226562 335.023438 L 601.351562 335.023438 L 601.351562 351.214844 L 585.226562 351.214844 Z M 585.226562 335.023438 " fill-opacity="1" fill-rule="nonzero"/></g></g><g clip-path="url(#8ccd2d3096)"><g clip-path="url(#25bdcdf4db)"><path fill="#00ff00" d="M 588.75 338.699219 L 600.601562 338.699219 L 600.601562 352.449219 L 588.75 352.449219 Z M 588.75 338.699219 " fill-opacity="1" fill-rule="nonzero"/></g></g><g clip-path="url(#85d68c0ff0)"><g clip-path="url(#9dd0d85015)"><path fill="#00ff00" d="M 585.226562 335.023438 L 600.523438 335.023438 L 600.523438 351.222656 L 585.226562 351.222656 Z M 585.226562 335.023438 " fill-opacity="1" fill-rule="nonzero"/></g></g><g clip-path="url(#c898fd1bce)"><g clip-path="url(#746989b069)"><path fill="#00ff00" d="M 584.773438 332.851562 L 611.390625 332.851562 L 611.390625 349.800781 L 584.773438 349.800781 Z M 584.773438 332.851562 " fill-opacity="1" fill-rule="nonzero"/></g></g><g clip-path="url(#79cec54b5f)"><g clip-path="url(#c90e287045)"><path fill="#00ff00" d="M 491.699219 532.800781 L 509.269531 532.800781 L 509.269531 545.398438 L 491.699219 545.398438 Z M 491.699219 532.800781 " fill-opacity="1" fill-rule="nonzero"/></g></g><g clip-path="url(#bce9535d9e)"><g clip-path="url(#de8eb53e14)"><path fill="#00ff00" d="M 494.550781 535.648438 L 504.976562 535.648438 L 504.976562 556.867188 L 494.550781 556.867188 Z M 494.550781 535.648438 " fill-opacity="1" fill-rule="nonzero"/></g></g><g clip-path="url(#43e6977aba)"><g clip-path="url(#e35fdcfc69)"><path fill="#00ff00" d="M 492.375 534.976562 L 507.601562 534.976562 L 507.601562 550.4375 L 492.375 550.4375 Z M 492.375 534.976562 " fill-opacity="1" fill-rule="nonzero"/></g></g><g clip-path="url(#3b9ccd4eda)"><g clip-path="url(#26ca06f6e1)"><path fill="#00ff00" d="M 489.449219 533.476562 L 501.367188 533.476562 L 501.367188 542.476562 L 489.449219 542.476562 Z M 489.449219 533.476562 " fill-opacity="1" fill-rule="nonzero"/></g></g><g clip-path="url(#9fbaa027b2)"><g clip-path="url(#fea5c1299d)"><path fill="#00ff00" d="M 492.375 532.800781 L 509.269531 532.800781 L 509.269531 543.976562 L 492.375 543.976562 Z M 492.375 532.800781 " fill-opacity="1" fill-rule="nonzero"/></g></g><g clip-path="url(#3e5dc15a74)"><g clip-path="url(#46c6bfb5c9)"><path fill="#00ff00" d="M 492.375 532.800781 L 509.03125 532.800781 L 509.03125 543.226562 L 492.375 543.226562 Z M 492.375 532.800781 " fill-opacity="1" fill-rule="nonzero"/></g></g><g clip-path="url(#caf7379804)"><g clip-path="url(#924968c709)"><path fill="#00ff00" d="M 584.398438 336.601562 L 594.601562 336.601562 L 594.601562 350.386719 L 584.398438 350.386719 Z M 584.398438 336.601562 " fill-opacity="1" fill-rule="nonzero"/></g></g><g clip-path="url(#d4205b8ef0)"><g clip-path="url(#33a6018b98)"><path fill="#00ff00" d="M 440.550781 258.074219 L 451.050781 258.074219 L 451.050781 274.277344 L 440.550781 274.277344 Z M 440.550781 258.074219 " fill-opacity="1" fill-rule="nonzero"/></g></g><g clip-path="url(#3adc99a0fd)"><g clip-path="url(#e74e69d36e)"><path fill="#00ff00" d="M 441.976562 258.75 L 450.976562 258.75 L 450.976562 272.777344 L 441.976562 272.777344 Z M 441.976562 258.75 " fill-opacity="1" fill-rule="nonzero"/></g></g></svg>