<svg width="1512" height="573" viewBox="0 0 1512 573" fill="none" xmlns="http://www.w3.org/2000/svg">
<mask id="mask0_38_79" style="mask-type:luminance" maskUnits="userSpaceOnUse" x="1" y="262" width="7" height="4">
<path d="M1.73633 262.074H7.36332V265.379H1.73633V262.074Z" fill="white"/>
</mask>
<g mask="url(#mask0_38_79)">
<path d="M4.12395 262.101L1.84802 262.429V265.069L5.01757 264.591L4.12395 262.101Z" fill="#F2F3F5"/>
</g>
<mask id="mask1_38_79" style="mask-type:luminance" maskUnits="userSpaceOnUse" x="1" y="262" width="57" height="13">
<path d="M1.73633 262.074H57.4059V274.452H1.73633V262.074Z" fill="white"/>
</mask>
<g mask="url(#mask1_38_79)">
<path d="M54.4039 262.101L1.84802 270.306V272.946L55.3952 264.591L54.4039 262.101Z" fill="#F2F3F5"/>
</g>
<mask id="mask2_38_79" style="mask-type:luminance" maskUnits="userSpaceOnUse" x="1" y="262" width="107" height="22">
<path d="M1.73633 262.074H107.448V283.525H1.73633V262.074Z" fill="white"/>
</mask>
<g mask="url(#mask2_38_79)">
<path d="M104.726 262.101L1.84802 279.414V282.054L105.717 264.591L104.726 262.101Z" fill="#F2F3F5"/>
</g>
<mask id="mask3_38_79" style="mask-type:luminance" maskUnits="userSpaceOnUse" x="1" y="262" width="157" height="33">
<path d="M1.73633 262.074H157.491V294.866H1.73633V262.074Z" fill="white"/>
</mask>
<g mask="url(#mask3_38_79)">
<path d="M154.992 262.128L1.84802 290.019V292.686L156.081 264.591L154.992 262.128Z" fill="#F2F3F5"/>
</g>
<mask id="mask4_38_79" style="mask-type:luminance" maskUnits="userSpaceOnUse" x="1" y="262" width="207" height="45">
<path d="M1.73633 262.074H207.534V306.207H1.73633V262.074Z" fill="white"/>
</mask>
<g mask="url(#mask4_38_79)">
<path d="M205.272 262.128L1.84802 302.539V305.241L206.458 264.555L205.272 262.128Z" fill="#F2F3F5"/>
</g>
<mask id="mask5_38_79" style="mask-type:luminance" maskUnits="userSpaceOnUse" x="1" y="262" width="257" height="61">
<path d="M1.73633 262.074H257.576V322.084H1.73633V262.074Z" fill="white"/>
</mask>
<g mask="url(#mask5_38_79)">
<path d="M255.551 262.128L1.84802 317.583V320.303L256.822 264.555L255.551 262.128Z" fill="#F2F3F5"/>
</g>
<mask id="mask6_38_79" style="mask-type:luminance" maskUnits="userSpaceOnUse" x="1" y="262" width="307" height="79">
<path d="M1.73633 262.074H307.619V340.23H1.73633V262.074Z" fill="white"/>
</mask>
<g mask="url(#mask6_38_79)">
<path d="M305.776 262.163L1.84802 335.977V338.697L307.242 264.529L305.776 262.163Z" fill="#F2F3F5"/>
</g>
<mask id="mask7_38_79" style="mask-type:luminance" maskUnits="userSpaceOnUse" x="1" y="262" width="357" height="101">
<path d="M1.73633 262.074H357.661V362.912H1.73633V262.074Z" fill="white"/>
</mask>
<g mask="url(#mask7_38_79)">
<path d="M356.055 262.163L1.84802 358.951V361.733L357.619 264.529L356.055 262.163Z" fill="#F2F3F5"/>
</g>
<mask id="mask8_38_79" style="mask-type:luminance" maskUnits="userSpaceOnUse" x="1" y="262" width="411" height="131">
<path d="M1.73633 262.074H411.278V392.398H1.73633V262.074Z" fill="white"/>
</mask>
<g mask="url(#mask8_38_79)">
<path d="M406.28 262.19L1.84802 388.456V391.3L408.025 264.502L406.28 262.19Z" fill="#F2F3F5"/>
</g>
<mask id="mask9_38_79" style="mask-type:luminance" maskUnits="userSpaceOnUse" x="1" y="262" width="461" height="169">
<path d="M1.73633 262.074H461.321V430.958H1.73633V262.074Z" fill="white"/>
</mask>
<g mask="url(#mask9_38_79)">
<path d="M456.462 262.252L1.84802 427.821V430.754L458.5 264.467L456.462 262.252Z" fill="#F2F3F5"/>
</g>
<mask id="mask10_38_79" style="mask-type:luminance" maskUnits="userSpaceOnUse" x="1" y="262" width="511" height="226">
<path d="M1.73633 262.074H511.363V487.663H1.73633V262.074Z" fill="white"/>
</mask>
<g mask="url(#mask10_38_79)">
<path d="M506.644 262.278L1.84802 482.878V485.997L508.962 264.405L506.644 262.278Z" fill="#F2F3F5"/>
</g>
<mask id="mask11_38_79" style="mask-type:luminance" maskUnits="userSpaceOnUse" x="1" y="262" width="561" height="308">
<path d="M1.73633 262.074H561.406V569.318H1.73633V262.074Z" fill="white"/>
</mask>
<g mask="url(#mask11_38_79)">
<path d="M556.826 262.376L1.84802 565.437V568.795L559.423 264.316L556.826 262.376Z" fill="#F2F3F5"/>
</g>
<mask id="mask12_38_79" style="mask-type:luminance" maskUnits="userSpaceOnUse" x="1" y="262" width="611" height="446">
<path d="M1.73633 262.074H611.448V707.678H1.73633V262.074Z" fill="white"/>
</mask>
<g mask="url(#mask12_38_79)">
<path d="M606.925 262.518L1.84802 702.876V706.766L609.982 264.201L606.925 262.518Z" fill="#F2F3F5"/>
</g>
<mask id="mask13_38_79" style="mask-type:luminance" maskUnits="userSpaceOnUse" x="218" y="262" width="444" height="477">
<path d="M218.257 262.074H661.491V738.299H218.257V262.074Z" fill="white"/>
</mask>
<g mask="url(#mask13_38_79)">
<path d="M657.051 262.704L221.036 738.281H225.671L660.5 263.988L657.051 262.704Z" fill="#F2F3F5"/>
</g>
<mask id="mask14_38_79" style="mask-type:luminance" maskUnits="userSpaceOnUse" x="486" y="262" width="226" height="477">
<path d="M486.342 262.074H711.534V738.299H486.342V262.074Z" fill="white"/>
</mask>
<g mask="url(#mask14_38_79)">
<path d="M707.191 263.005L488.716 738.281H492.905L711.017 263.687L707.191 263.005Z" fill="#F2F3F5"/>
</g>
<mask id="mask15_38_79" style="mask-type:luminance" maskUnits="userSpaceOnUse" x="754" y="263" width="8" height="476">
<path d="M754.427 263.111H761.576V738.299H754.427V263.111Z" fill="white"/>
</mask>
<g mask="url(#mask15_38_79)">
<path d="M757.415 263.359L756.284 738.281H760.292L761.423 263.359H757.415Z" fill="#F2F3F5"/>
</g>
<mask id="mask16_38_79" style="mask-type:luminance" maskUnits="userSpaceOnUse" x="1" y="276" width="761" height="6">
<path d="M1.73633 276.72H761.576V281.257H1.73633V276.72Z" fill="white"/>
</mask>
<g mask="url(#mask16_38_79)">
<path d="M1.84802 277.323H759.398V279.866H1.84802V277.323Z" fill="#F2F3F5"/>
</g>
<mask id="mask17_38_79" style="mask-type:luminance" maskUnits="userSpaceOnUse" x="1" y="269" width="761" height="6">
<path d="M1.73633 269.916H761.576V274.452H1.73633V269.916Z" fill="white"/>
</mask>
<g mask="url(#mask17_38_79)">
<path d="M1.84802 271.776H759.398V274.328H1.84802V271.776Z" fill="#F2F3F5"/>
</g>
<mask id="mask18_38_79" style="mask-type:luminance" maskUnits="userSpaceOnUse" x="1" y="265" width="761" height="5">
<path d="M1.73633 265.379H761.576V269.916H1.73633V265.379Z" fill="white"/>
</mask>
<g mask="url(#mask18_38_79)">
<path d="M1.84802 266.717H759.398V269.26H1.84802V266.717Z" fill="#F2F3F5"/>
</g>
<mask id="mask19_38_79" style="mask-type:luminance" maskUnits="userSpaceOnUse" x="1" y="262" width="761" height="4">
<path d="M1.73633 262.074H761.576V265.379H1.73633V262.074Z" fill="white"/>
</mask>
<g mask="url(#mask19_38_79)">
<path d="M1.84802 262.074H759.44V264.617H1.84802V262.074Z" fill="#F2F3F5"/>
</g>
<mask id="mask20_38_79" style="mask-type:luminance" maskUnits="userSpaceOnUse" x="1" y="281" width="761" height="8">
<path d="M1.73633 281.257H761.576V288.061H1.73633V281.257Z" fill="white"/>
</mask>
<g mask="url(#mask20_38_79)">
<path d="M1.84802 283.401H759.356V285.943H1.84802V283.401Z" fill="#F2F3F5"/>
</g>
<mask id="mask21_38_79" style="mask-type:luminance" maskUnits="userSpaceOnUse" x="1" y="288" width="761" height="7">
<path d="M1.73633 288.061H761.576V294.866H1.73633V288.061Z" fill="white"/>
</mask>
<g mask="url(#mask21_38_79)">
<path d="M1.84802 290.081H759.356V292.624H1.84802V290.081Z" fill="#F2F3F5"/>
</g>
<mask id="mask22_38_79" style="mask-type:luminance" maskUnits="userSpaceOnUse" x="1" y="297" width="761" height="5">
<path d="M1.73633 297.134H761.576V301.67H1.73633V297.134Z" fill="white"/>
</mask>
<g mask="url(#mask22_38_79)">
<path d="M1.84802 297.479H759.356V300.022H1.84802V297.479Z" fill="#F2F3F5"/>
</g>
<mask id="mask23_38_79" style="mask-type:luminance" maskUnits="userSpaceOnUse" x="1" y="303" width="761" height="6">
<path d="M1.73633 303.939H761.576V308.475H1.73633V303.939Z" fill="white"/>
</mask>
<g mask="url(#mask23_38_79)">
<path d="M1.84802 305.746H759.3V308.298H1.84802V305.746Z" fill="#F2F3F5"/>
</g>
<mask id="mask24_38_79" style="mask-type:luminance" maskUnits="userSpaceOnUse" x="1" y="313" width="761" height="5">
<path d="M1.73633 313.011H761.576V317.548H1.73633V313.011Z" fill="white"/>
</mask>
<g mask="url(#mask24_38_79)">
<path d="M1.84802 314.979H759.3V317.521H1.84802V314.979Z" fill="#F2F3F5"/>
</g>
<mask id="mask25_38_79" style="mask-type:luminance" maskUnits="userSpaceOnUse" x="1" y="324" width="761" height="5">
<path d="M1.73633 324.353H761.576V328.889H1.73633V324.353Z" fill="white"/>
</mask>
<g mask="url(#mask25_38_79)">
<path d="M1.84802 325.398H759.258V327.941H1.84802V325.398Z" fill="#F2F3F5"/>
</g>
<mask id="mask26_38_79" style="mask-type:luminance" maskUnits="userSpaceOnUse" x="1" y="335" width="761" height="6">
<path d="M1.73633 335.693H761.576V340.23H1.73633V335.693Z" fill="white"/>
</mask>
<g mask="url(#mask26_38_79)">
<path d="M1.84802 337.235H759.258V339.778H1.84802V337.235Z" fill="#F2F3F5"/>
</g>
<mask id="mask27_38_79" style="mask-type:luminance" maskUnits="userSpaceOnUse" x="1" y="349" width="761" height="5">
<path d="M1.73633 349.303H761.576V353.839H1.73633V349.303Z" fill="white"/>
</mask>
<g mask="url(#mask27_38_79)">
<path d="M1.84802 350.8H759.216V353.352H1.84802V350.8Z" fill="#F2F3F5"/>
</g>
<mask id="mask28_38_79" style="mask-type:luminance" maskUnits="userSpaceOnUse" x="1" y="365" width="761" height="5">
<path d="M1.73633 365.18H761.576V369.717H1.73633V365.18Z" fill="white"/>
</mask>
<g mask="url(#mask28_38_79)">
<path d="M1.84802 366.527H759.161V369.079H1.84802V366.527Z" fill="#F2F3F5"/>
</g>
<mask id="mask29_38_79" style="mask-type:luminance" maskUnits="userSpaceOnUse" x="1" y="383" width="761" height="5">
<path d="M1.73633 383.326H761.576V387.862H1.73633V383.326Z" fill="white"/>
</mask>
<g mask="url(#mask29_38_79)">
<path d="M1.84802 384.956H759.119V387.499H1.84802V384.956Z" fill="#F2F3F5"/>
</g>
<mask id="mask30_38_79" style="mask-type:luminance" maskUnits="userSpaceOnUse" x="1" y="406" width="761" height="5">
<path d="M1.73633 406.008H761.576V410.544H1.73633V406.008Z" fill="white"/>
</mask>
<g mask="url(#mask30_38_79)">
<path d="M1.84802 406.849H759.063V409.392H1.84802V406.849Z" fill="#F2F3F5"/>
</g>
<mask id="mask31_38_79" style="mask-type:luminance" maskUnits="userSpaceOnUse" x="1" y="433" width="761" height="5">
<path d="M1.73633 433.226H761.576V437.762H1.73633V433.226Z" fill="white"/>
</mask>
<g mask="url(#mask31_38_79)">
<path d="M1.84802 433.27H759.021V435.813H1.84802V433.27Z" fill="#F2F3F5"/>
</g>
<mask id="mask32_38_79" style="mask-type:luminance" maskUnits="userSpaceOnUse" x="1" y="464" width="761" height="6">
<path d="M1.73633 464.981H761.576V469.517H1.73633V464.981Z" fill="white"/>
</mask>
<g mask="url(#mask32_38_79)">
<path d="M1.84802 465.805H758.923V468.348H1.84802V465.805Z" fill="#F2F3F5"/>
</g>
<mask id="mask33_38_79" style="mask-type:luminance" maskUnits="userSpaceOnUse" x="1" y="505" width="761" height="6">
<path d="M1.73633 505.808H761.576V510.345H1.73633V505.808Z" fill="white"/>
</mask>
<g mask="url(#mask33_38_79)">
<path d="M1.84802 506.872H758.825V509.414H1.84802V506.872Z" fill="#F2F3F5"/>
</g>
<mask id="mask34_38_79" style="mask-type:luminance" maskUnits="userSpaceOnUse" x="1" y="560" width="761" height="5">
<path d="M1.73633 560.245H761.576V564.782H1.73633V560.245Z" fill="white"/>
</mask>
<g mask="url(#mask34_38_79)">
<path d="M1.84802 560.281H758.742V562.832H1.84802V560.281Z" fill="#F2F3F5"/>
</g>
<mask id="mask35_38_79" style="mask-type:luminance" maskUnits="userSpaceOnUse" x="804" y="262" width="226" height="477">
<path d="M804.47 262.074H1029.66V738.299H804.47V262.074Z" fill="white"/>
</mask>
<g mask="url(#mask35_38_79)">
<path d="M807.835 263.687L1023.67 738.281H1027.87L811.661 263.005L807.835 263.687Z" fill="#F2F3F5"/>
</g>
<mask id="mask36_38_79" style="mask-type:luminance" maskUnits="userSpaceOnUse" x="858" y="262" width="440" height="477">
<path d="M858.087 262.074H1297.75V738.299H858.087V262.074Z" fill="white"/>
</mask>
<g mask="url(#mask36_38_79)">
<path d="M858.352 263.988L1290.92 738.281H1295.54L861.787 262.704L858.352 263.988Z" fill="#F2F3F5"/>
</g>
<mask id="mask37_38_79" style="mask-type:luminance" maskUnits="userSpaceOnUse" x="908" y="262" width="602" height="444">
<path d="M908.129 262.074H1509.84V705.41H908.129V262.074Z" fill="white"/>
</mask>
<g mask="url(#mask37_38_79)">
<path d="M908.855 264.201L1510.15 703.293V699.403L911.927 262.518L908.855 264.201Z" fill="#F2F3F5"/>
</g>
<mask id="mask38_38_79" style="mask-type:luminance" maskUnits="userSpaceOnUse" x="958" y="262" width="552" height="306">
<path d="M958.172 262.074H1509.84V567.05H958.172V262.074Z" fill="white"/>
</mask>
<g mask="url(#mask38_38_79)">
<path d="M959.415 264.316L1510.15 565.854V562.469L962.012 262.376L959.415 264.316Z" fill="#F2F3F5"/>
</g>
<mask id="mask39_38_79" style="mask-type:luminance" maskUnits="userSpaceOnUse" x="1008" y="262" width="502" height="224">
<path d="M1008.21 262.074H1509.84V485.395H1008.21V262.074Z" fill="white"/>
</mask>
<g mask="url(#mask39_38_79)">
<path d="M1009.89 264.405L1510.15 483.445V480.362L1012.19 262.278L1009.89 264.405Z" fill="#F2F3F5"/>
</g>
<mask id="mask40_38_79" style="mask-type:luminance" maskUnits="userSpaceOnUse" x="1058" y="262" width="452" height="167">
<path d="M1058.26 262.074H1509.84V428.69H1058.26V262.074Z" fill="white"/>
</mask>
<g mask="url(#mask40_38_79)">
<path d="M1060.35 264.467L1510.15 428.566V425.597L1062.38 262.252L1060.35 264.467Z" fill="#F2F3F5"/>
</g>
<mask id="mask41_38_79" style="mask-type:luminance" maskUnits="userSpaceOnUse" x="1108" y="262" width="402" height="129">
<path d="M1108.3 262.074H1509.84V390.13H1108.3V262.074Z" fill="white"/>
</mask>
<g mask="url(#mask41_38_79)">
<path d="M1110.81 264.502L1510.15 389.359V386.507L1112.56 262.19L1110.81 264.502Z" fill="#F2F3F5"/>
</g>
<mask id="mask42_38_79" style="mask-type:luminance" maskUnits="userSpaceOnUse" x="1158" y="262" width="352" height="99">
<path d="M1158.34 262.074H1509.84V360.644H1158.34V262.074Z" fill="white"/>
</mask>
<g mask="url(#mask42_38_79)">
<path d="M1161.23 264.529L1510.15 359.97V357.179L1162.8 262.163L1161.23 264.529Z" fill="#F2F3F5"/>
</g>
<mask id="mask43_38_79" style="mask-type:luminance" maskUnits="userSpaceOnUse" x="1208" y="262" width="302" height="76">
<path d="M1208.38 262.074H1509.84V337.962H1208.38V262.074Z" fill="white"/>
</mask>
<g mask="url(#mask43_38_79)">
<path d="M1211.6 264.529L1510.15 337.138V334.382L1213.06 262.163L1211.6 264.529Z" fill="#F2F3F5"/>
</g>
<mask id="mask44_38_79" style="mask-type:luminance" maskUnits="userSpaceOnUse" x="1262" y="262" width="248" height="58">
<path d="M1262 262.074H1509.84V319.816H1262V262.074Z" fill="white"/>
</mask>
<g mask="url(#mask44_38_79)">
<path d="M1262.02 264.555L1510.15 318.868V316.139L1263.3 262.128L1262.02 264.555Z" fill="#F2F3F5"/>
</g>
<mask id="mask45_38_79" style="mask-type:luminance" maskUnits="userSpaceOnUse" x="1312" y="262" width="198" height="42">
<path d="M1312.04 262.074H1509.84V303.939H1312.04V262.074Z" fill="white"/>
</mask>
<g mask="url(#mask45_38_79)">
<path d="M1312.39 264.555L1510.15 303.894V301.228L1313.57 262.128L1312.39 264.555Z" fill="#F2F3F5"/>
</g>
<mask id="mask46_38_79" style="mask-type:luminance" maskUnits="userSpaceOnUse" x="1362" y="262" width="148" height="31">
<path d="M1362.09 262.074H1509.84V292.598H1362.09V262.074Z" fill="white"/>
</mask>
<g mask="url(#mask46_38_79)">
<path d="M1362.76 264.591L1510.15 291.455V288.797L1363.85 262.128L1362.76 264.591Z" fill="#F2F3F5"/>
</g>
<mask id="mask47_38_79" style="mask-type:luminance" maskUnits="userSpaceOnUse" x="1412" y="262" width="98" height="20">
<path d="M1412.13 262.074H1509.84V281.257H1412.13V262.074Z" fill="white"/>
</mask>
<g mask="url(#mask47_38_79)">
<path d="M1413.13 264.591L1510.15 280.911V278.28L1414.17 262.101L1413.13 264.591Z" fill="#F2F3F5"/>
</g>
<mask id="mask48_38_79" style="mask-type:luminance" maskUnits="userSpaceOnUse" x="1462" y="262" width="48" height="11">
<path d="M1462.17 262.074H1509.84V272.184H1462.17V262.074Z" fill="white"/>
</mask>
<g mask="url(#mask48_38_79)">
<path d="M1463.46 264.591L1510.15 271.865V269.26L1464.45 262.101L1463.46 264.591Z" fill="#F2F3F5"/>
</g>
<mask id="mask49_38_79" style="mask-type:luminance" maskUnits="userSpaceOnUse" x="758" y="276" width="752" height="6">
<path d="M758.002 276.72H1509.84V281.257H758.002V276.72Z" fill="white"/>
</mask>
<g mask="url(#mask49_38_79)">
<path d="M759.398 277.323H1510.15V279.866H759.398V277.323Z" fill="#F2F3F5"/>
</g>
<mask id="mask50_38_79" style="mask-type:luminance" maskUnits="userSpaceOnUse" x="758" y="269" width="752" height="6">
<path d="M758.002 269.916H1509.84V274.452H758.002V269.916Z" fill="white"/>
</mask>
<g mask="url(#mask50_38_79)">
<path d="M759.398 271.776H1510.15V274.328H759.398V271.776Z" fill="#F2F3F5"/>
</g>
<mask id="mask51_38_79" style="mask-type:luminance" maskUnits="userSpaceOnUse" x="758" y="265" width="752" height="5">
<path d="M758.002 265.379H1509.84V269.916H758.002V265.379Z" fill="white"/>
</mask>
<g mask="url(#mask51_38_79)">
<path d="M759.398 266.717H1510.15V269.26H759.398V266.717Z" fill="#F2F3F5"/>
</g>
<mask id="mask52_38_79" style="mask-type:luminance" maskUnits="userSpaceOnUse" x="758" y="262" width="752" height="4">
<path d="M758.002 262.074H1509.84V265.379H758.002V262.074Z" fill="white"/>
</mask>
<g mask="url(#mask52_38_79)">
<path d="M759.44 262.074H1510.15V264.617H759.44V262.074Z" fill="#F2F3F5"/>
</g>
<mask id="mask53_38_79" style="mask-type:luminance" maskUnits="userSpaceOnUse" x="758" y="281" width="752" height="8">
<path d="M758.002 281.257H1509.84V288.061H758.002V281.257Z" fill="white"/>
</mask>
<g mask="url(#mask53_38_79)">
<path d="M759.356 283.401H1510.15V285.943H759.356V283.401Z" fill="#F2F3F5"/>
</g>
<mask id="mask54_38_79" style="mask-type:luminance" maskUnits="userSpaceOnUse" x="758" y="288" width="752" height="7">
<path d="M758.002 288.061H1509.84V294.866H758.002V288.061Z" fill="white"/>
</mask>
<g mask="url(#mask54_38_79)">
<path d="M759.356 290.081H1510.15V292.624H759.356V290.081Z" fill="#F2F3F5"/>
</g>
<mask id="mask55_38_79" style="mask-type:luminance" maskUnits="userSpaceOnUse" x="758" y="297" width="752" height="5">
<path d="M758.002 297.134H1509.84V301.67H758.002V297.134Z" fill="white"/>
</mask>
<g mask="url(#mask55_38_79)">
<path d="M759.356 297.479H1510.15V300.022H759.356V297.479Z" fill="#F2F3F5"/>
</g>
<mask id="mask56_38_79" style="mask-type:luminance" maskUnits="userSpaceOnUse" x="758" y="303" width="752" height="6">
<path d="M758.002 303.939H1509.84V308.475H758.002V303.939Z" fill="white"/>
</mask>
<g mask="url(#mask56_38_79)">
<path d="M759.3 305.746H1510.15V308.298H759.3V305.746Z" fill="#F2F3F5"/>
</g>
<mask id="mask57_38_79" style="mask-type:luminance" maskUnits="userSpaceOnUse" x="758" y="313" width="752" height="5">
<path d="M758.002 313.011H1509.84V317.548H758.002V313.011Z" fill="white"/>
</mask>
<g mask="url(#mask57_38_79)">
<path d="M759.3 314.979H1510.15V317.521H759.3V314.979Z" fill="#F2F3F5"/>
</g>
<mask id="mask58_38_79" style="mask-type:luminance" maskUnits="userSpaceOnUse" x="758" y="324" width="752" height="5">
<path d="M758.002 324.353H1509.84V328.889H758.002V324.353Z" fill="white"/>
</mask>
<g mask="url(#mask58_38_79)">
<path d="M759.258 325.398H1510.15V327.941H759.258V325.398Z" fill="#F2F3F5"/>
</g>
<mask id="mask59_38_79" style="mask-type:luminance" maskUnits="userSpaceOnUse" x="758" y="335" width="752" height="6">
<path d="M758.002 335.693H1509.84V340.23H758.002V335.693Z" fill="white"/>
</mask>
<g mask="url(#mask59_38_79)">
<path d="M759.258 337.235H1510.15V339.778H759.258V337.235Z" fill="#F2F3F5"/>
</g>
<mask id="mask60_38_79" style="mask-type:luminance" maskUnits="userSpaceOnUse" x="758" y="349" width="752" height="5">
<path d="M758.002 349.303H1509.84V353.839H758.002V349.303Z" fill="white"/>
</mask>
<g mask="url(#mask60_38_79)">
<path d="M759.216 350.8H1510.15V353.352H759.216V350.8Z" fill="#F2F3F5"/>
</g>
<mask id="mask61_38_79" style="mask-type:luminance" maskUnits="userSpaceOnUse" x="758" y="365" width="752" height="5">
<path d="M758.002 365.18H1509.84V369.717H758.002V365.18Z" fill="white"/>
</mask>
<g mask="url(#mask61_38_79)">
<path d="M759.161 366.527H1510.15V369.079H759.161V366.527Z" fill="#F2F3F5"/>
</g>
<mask id="mask62_38_79" style="mask-type:luminance" maskUnits="userSpaceOnUse" x="758" y="383" width="752" height="5">
<path d="M758.002 383.326H1509.84V387.862H758.002V383.326Z" fill="white"/>
</mask>
<g mask="url(#mask62_38_79)">
<path d="M759.119 384.956H1510.15V387.499H759.119V384.956Z" fill="#F2F3F5"/>
</g>
<mask id="mask63_38_79" style="mask-type:luminance" maskUnits="userSpaceOnUse" x="758" y="406" width="752" height="5">
<path d="M758.002 406.008H1509.84V410.544H758.002V406.008Z" fill="white"/>
</mask>
<g mask="url(#mask63_38_79)">
<path d="M759.063 406.849H1510.15V409.392H759.063V406.849Z" fill="#F2F3F5"/>
</g>
<mask id="mask64_38_79" style="mask-type:luminance" maskUnits="userSpaceOnUse" x="758" y="433" width="752" height="5">
<path d="M758.002 433.226H1509.84V437.762H758.002V433.226Z" fill="white"/>
</mask>
<g mask="url(#mask64_38_79)">
<path d="M759.021 433.27H1510.15V435.813H759.021V433.27Z" fill="#F2F3F5"/>
</g>
<mask id="mask65_38_79" style="mask-type:luminance" maskUnits="userSpaceOnUse" x="758" y="464" width="752" height="6">
<path d="M758.002 464.981H1509.84V469.517H758.002V464.981Z" fill="white"/>
</mask>
<g mask="url(#mask65_38_79)">
<path d="M758.923 465.805H1510.15V468.348H758.923V465.805Z" fill="#F2F3F5"/>
</g>
<mask id="mask66_38_79" style="mask-type:luminance" maskUnits="userSpaceOnUse" x="758" y="505" width="752" height="6">
<path d="M758.002 505.808H1509.84V510.345H758.002V505.808Z" fill="white"/>
</mask>
<g mask="url(#mask66_38_79)">
<path d="M758.826 506.872H1510.15V509.414H758.826V506.872Z" fill="#F2F3F5"/>
</g>
<mask id="mask67_38_79" style="mask-type:luminance" maskUnits="userSpaceOnUse" x="758" y="560" width="752" height="5">
<path d="M758.002 560.245H1509.84V564.782H758.002V560.245Z" fill="white"/>
</mask>
<g mask="url(#mask67_38_79)">
<path d="M758.742 560.281H1510.15V562.832H758.742V560.281Z" fill="#F2F3F5"/>
</g>
</svg>
